<?xml version="1.0" encoding="UTF-8"?>
<svg xmlns="http://www.w3.org/2000/svg" xmlns:xlink="http://www.w3.org/1999/xlink" width="3120" height="3120" viewBox="0 0 3120 3120">
<path fill-rule="evenodd" fill="rgb(0%, 0%, 0%)" fill-opacity="1" d="M 1014.269531 1662.121094 C 998.371094 1662.121094 985.363281 1649.109375 985.363281 1633.210938 L 985.363281 1466.488281 C 985.363281 1450.578125 998.371094 1437.570312 1014.269531 1437.570312 C 1030.171875 1437.570312 1043.179688 1450.578125 1043.179688 1466.488281 L 1043.179688 1633.210938 C 1043.179688 1649.109375 1030.171875 1662.121094 1014.269531 1662.121094 "/>
<path fill="none" stroke-width="2.51303" stroke-linecap="butt" stroke-linejoin="miter" stroke="rgb(0%, 0%, 0%)" stroke-opacity="1" stroke-miterlimit="2.61313" d="M 10142.695312 14578.789062 C 9983.710938 14578.789062 9853.632812 14708.90625 9853.632812 14867.890625 L 9853.632812 16535.117188 C 9853.632812 16694.21875 9983.710938 16824.296875 10142.695312 16824.296875 C 10301.71875 16824.296875 10431.796875 16694.21875 10431.796875 16535.117188 L 10431.796875 14867.890625 C 10431.796875 14708.90625 10301.71875 14578.789062 10142.695312 14578.789062 Z M 10142.695312 14578.789062 " transform="matrix(0.1, 0, 0, -0.1, 0, 3120)"/>
<path fill-rule="evenodd" fill="rgb(0%, 0%, 0%)" fill-opacity="1" d="M 1156.929688 1187.859375 L 1983.339844 1187.859375 C 2065.691406 1187.859375 2133.039062 1255.238281 2133.039062 1337.578125 L 2133.039062 1726.230469 C 2133.039062 1808.570312 2065.691406 1875.941406 1983.339844 1875.941406 L 1156.929688 1875.941406 C 1074.589844 1875.941406 1007.21875 1808.570312 1007.21875 1726.230469 L 1007.21875 1337.578125 C 1007.21875 1255.238281 1074.589844 1187.859375 1156.929688 1187.859375 "/>
<path fill="none" stroke-width="2.51303" stroke-linecap="butt" stroke-linejoin="miter" stroke="rgb(100%, 100%, 100%)" stroke-opacity="1" stroke-miterlimit="2.61313" d="M 11569.296875 19321.40625 L 19833.398438 19321.40625 C 20656.914062 19321.40625 21330.390625 18647.617188 21330.390625 17824.21875 L 21330.390625 13937.695312 C 21330.390625 13114.296875 20656.914062 12440.585938 19833.398438 12440.585938 L 11569.296875 12440.585938 C 10745.898438 12440.585938 10072.1875 13114.296875 10072.1875 13937.695312 L 10072.1875 17824.21875 C 10072.1875 18647.617188 10745.898438 19321.40625 11569.296875 19321.40625 Z M 11569.296875 19321.40625 " transform="matrix(0.1, 0, 0, -0.1, 0, 3120)"/>
<path fill-rule="evenodd" fill="rgb(0%, 0%, 0%)" fill-opacity="1" d="M 1570.140625 1187.859375 C 1750.460938 1187.859375 1896.640625 1341.890625 1896.640625 1531.898438 C 1896.640625 1721.910156 1750.460938 1875.941406 1570.140625 1875.941406 C 1389.808594 1875.941406 1243.640625 1721.910156 1243.640625 1531.898438 C 1243.640625 1341.890625 1389.808594 1187.859375 1570.140625 1187.859375 "/>
<path fill="none" stroke-width="120.617" stroke-linecap="butt" stroke-linejoin="miter" stroke="rgb(100%, 100%, 100%)" stroke-opacity="1" stroke-miterlimit="2.61313" d="M 15701.40625 19321.40625 C 17504.609375 19321.40625 18966.40625 17781.09375 18966.40625 15881.015625 C 18966.40625 13980.898438 17504.609375 12440.585938 15701.40625 12440.585938 C 13898.085938 12440.585938 12436.40625 13980.898438 12436.40625 15881.015625 C 12436.40625 17781.09375 13898.085938 19321.40625 15701.40625 19321.40625 Z M 15701.40625 19321.40625 " transform="matrix(0.1, 0, 0, -0.1, 0, 3120)"/>
<path fill-rule="evenodd" fill="rgb(0%, 0%, 0%)" fill-opacity="1" d="M 1897.410156 1172.011719 L 1933.339844 1172.011719 C 1959.679688 1172.011719 1981.238281 1193.570312 1981.238281 1219.921875 C 1981.238281 1246.269531 1959.679688 1267.828125 1933.339844 1267.828125 L 1897.410156 1267.828125 C 1871.058594 1267.828125 1849.5 1246.269531 1849.5 1219.921875 C 1849.5 1193.570312 1871.058594 1172.011719 1897.410156 1172.011719 "/>
<path fill="none" stroke-width="2.51303" stroke-linecap="butt" stroke-linejoin="miter" stroke="rgb(0%, 0%, 0%)" stroke-opacity="1" stroke-miterlimit="2.61313" d="M 18974.101562 19479.882812 L 19333.398438 19479.882812 C 19596.796875 19479.882812 19812.382812 19264.296875 19812.382812 19000.78125 C 19812.382812 18737.304688 19596.796875 18521.71875 19333.398438 18521.71875 L 18974.101562 18521.71875 C 18710.585938 18521.71875 18495 18737.304688 18495 19000.78125 C 18495 19264.296875 18710.585938 19479.882812 18974.101562 19479.882812 Z M 18974.101562 19479.882812 " transform="matrix(0.1, 0, 0, -0.1, 0, 3120)"/>
<path fill-rule="evenodd" fill="rgb(100%, 100%, 100%)" fill-opacity="1" d="M 1571.339844 1532.5 C 1571.339844 1530.480469 1569.859375 1528.839844 1568.039062 1528.839844 C 1566.21875 1528.839844 1564.738281 1530.480469 1564.738281 1532.5 C 1564.738281 1534.519531 1566.21875 1536.160156 1568.039062 1536.160156 C 1569.859375 1536.160156 1571.339844 1534.519531 1571.339844 1532.5 "/>
<path fill-rule="evenodd" fill="rgb(99.609375%, 99.609375%, 99.609375%)" fill-opacity="1" d="M 1570.238281 1532.5 C 1570.238281 1533.851562 1569.261719 1534.941406 1568.039062 1534.941406 C 1566.820312 1534.941406 1565.839844 1533.851562 1565.839844 1532.5 C 1565.839844 1531.148438 1566.820312 1530.058594 1568.039062 1530.058594 C 1569.261719 1530.058594 1570.238281 1531.148438 1570.238281 1532.5 Z M 1573.539062 1532.5 C 1573.539062 1529.128906 1571.078125 1526.398438 1568.039062 1526.398438 C 1565 1526.398438 1562.539062 1529.128906 1562.539062 1532.5 C 1562.539062 1535.871094 1565 1538.609375 1568.039062 1538.609375 C 1571.078125 1538.609375 1573.539062 1535.871094 1573.539062 1532.5 "/>
<path fill-rule="evenodd" fill="rgb(98.826599%, 98.826599%, 98.826599%)" fill-opacity="1" d="M 1572.441406 1532.5 C 1572.441406 1535.199219 1570.46875 1537.378906 1568.039062 1537.378906 C 1565.609375 1537.378906 1563.640625 1535.199219 1563.640625 1532.5 C 1563.640625 1529.800781 1565.609375 1527.621094 1568.039062 1527.621094 C 1570.46875 1527.621094 1572.441406 1529.800781 1572.441406 1532.5 Z M 1575.738281 1532.5 C 1575.738281 1527.78125 1572.289062 1523.949219 1568.039062 1523.949219 C 1563.789062 1523.949219 1560.339844 1527.78125 1560.339844 1532.5 C 1560.339844 1537.21875 1563.789062 1541.050781 1568.039062 1541.050781 C 1572.289062 1541.050781 1575.738281 1537.21875 1575.738281 1532.5 "/>
<path fill-rule="evenodd" fill="rgb(98.4375%, 98.4375%, 98.4375%)" fill-opacity="1" d="M 1574.640625 1532.5 C 1574.640625 1536.550781 1571.679688 1539.828125 1568.039062 1539.828125 C 1564.398438 1539.828125 1561.441406 1536.550781 1561.441406 1532.5 C 1561.441406 1528.449219 1564.398438 1525.171875 1568.039062 1525.171875 C 1571.679688 1525.171875 1574.640625 1528.449219 1574.640625 1532.5 Z M 1577.929688 1532.5 C 1577.929688 1526.429688 1573.5 1521.511719 1568.039062 1521.511719 C 1562.578125 1521.511719 1558.140625 1526.429688 1558.140625 1532.5 C 1558.140625 1538.570312 1562.578125 1543.488281 1568.039062 1543.488281 C 1573.5 1543.488281 1577.929688 1538.570312 1577.929688 1532.5 "/>
<path fill-rule="evenodd" fill="rgb(97.65625%, 97.65625%, 97.65625%)" fill-opacity="1" d="M 1576.839844 1532.5 C 1576.839844 1537.898438 1572.898438 1542.269531 1568.039062 1542.269531 C 1563.179688 1542.269531 1559.238281 1537.898438 1559.238281 1532.5 C 1559.238281 1527.109375 1563.179688 1522.730469 1568.039062 1522.730469 C 1572.898438 1522.730469 1576.839844 1527.109375 1576.839844 1532.5 Z M 1580.128906 1532.5 C 1580.128906 1525.078125 1574.71875 1519.070312 1568.039062 1519.070312 C 1561.359375 1519.070312 1555.949219 1525.078125 1555.949219 1532.5 C 1555.949219 1539.921875 1561.359375 1545.929688 1568.039062 1545.929688 C 1574.71875 1545.929688 1580.128906 1539.921875 1580.128906 1532.5 "/>
<path fill-rule="evenodd" fill="rgb(97.264099%, 97.264099%, 97.264099%)" fill-opacity="1" d="M 1579.03125 1532.5 C 1579.03125 1539.238281 1574.109375 1544.710938 1568.039062 1544.710938 C 1561.96875 1544.710938 1557.050781 1539.238281 1557.050781 1532.5 C 1557.050781 1525.761719 1561.96875 1520.289062 1568.039062 1520.289062 C 1574.109375 1520.289062 1579.03125 1525.761719 1579.03125 1532.5 Z M 1582.328125 1532.5 C 1582.328125 1523.730469 1575.929688 1516.628906 1568.039062 1516.628906 C 1560.148438 1516.628906 1553.75 1523.730469 1553.75 1532.5 C 1553.75 1541.269531 1560.148438 1548.371094 1568.039062 1548.371094 C 1575.929688 1548.371094 1582.328125 1541.269531 1582.328125 1532.5 "/>
<path fill-rule="evenodd" fill="rgb(96.875%, 96.875%, 96.875%)" fill-opacity="1" d="M 1581.230469 1532.5 C 1581.230469 1540.589844 1575.328125 1547.148438 1568.039062 1547.148438 C 1560.75 1547.148438 1554.851562 1540.589844 1554.851562 1532.5 C 1554.851562 1524.410156 1560.75 1517.851562 1568.039062 1517.851562 C 1575.328125 1517.851562 1581.230469 1524.410156 1581.230469 1532.5 Z M 1584.53125 1532.5 C 1584.53125 1522.390625 1577.148438 1514.191406 1568.039062 1514.191406 C 1558.929688 1514.191406 1551.550781 1522.390625 1551.550781 1532.5 C 1551.550781 1542.621094 1558.929688 1550.820312 1568.039062 1550.820312 C 1577.148438 1550.820312 1584.53125 1542.621094 1584.53125 1532.5 "/>
<path fill-rule="evenodd" fill="rgb(96.09375%, 96.09375%, 96.09375%)" fill-opacity="1" d="M 1583.429688 1532.5 C 1583.429688 1541.941406 1576.539062 1549.589844 1568.039062 1549.589844 C 1559.539062 1549.589844 1552.648438 1541.941406 1552.648438 1532.5 C 1552.648438 1523.058594 1559.539062 1515.410156 1568.039062 1515.410156 C 1576.539062 1515.410156 1583.429688 1523.058594 1583.429688 1532.5 Z M 1586.730469 1532.5 C 1586.730469 1521.039062 1578.359375 1511.738281 1568.039062 1511.738281 C 1557.71875 1511.738281 1549.351562 1521.039062 1549.351562 1532.5 C 1549.351562 1543.96875 1557.71875 1553.261719 1568.039062 1553.261719 C 1578.359375 1553.261719 1586.730469 1543.96875 1586.730469 1532.5 "/>
<path fill-rule="evenodd" fill="rgb(95.701599%, 95.701599%, 95.701599%)" fill-opacity="1" d="M 1585.628906 1532.5 C 1585.628906 1543.289062 1577.761719 1552.039062 1568.039062 1552.039062 C 1558.328125 1552.039062 1550.449219 1543.289062 1550.449219 1532.5 C 1550.449219 1521.710938 1558.328125 1512.960938 1568.039062 1512.960938 C 1577.761719 1512.960938 1585.628906 1521.710938 1585.628906 1532.5 Z M 1588.929688 1532.5 C 1588.929688 1519.691406 1579.578125 1509.300781 1568.039062 1509.300781 C 1556.5 1509.300781 1547.148438 1519.691406 1547.148438 1532.5 C 1547.148438 1545.308594 1556.5 1555.699219 1568.039062 1555.699219 C 1579.578125 1555.699219 1588.929688 1545.308594 1588.929688 1532.5 "/>
<path fill-rule="evenodd" fill="rgb(94.921875%, 94.921875%, 94.921875%)" fill-opacity="1" d="M 1587.828125 1532.5 C 1587.828125 1544.640625 1578.96875 1554.480469 1568.039062 1554.480469 C 1557.109375 1554.480469 1548.25 1544.640625 1548.25 1532.5 C 1548.25 1520.359375 1557.109375 1510.519531 1568.039062 1510.519531 C 1578.96875 1510.519531 1587.828125 1520.359375 1587.828125 1532.5 Z M 1591.128906 1532.5 C 1591.128906 1518.339844 1580.789062 1506.859375 1568.039062 1506.859375 C 1555.289062 1506.859375 1544.949219 1518.339844 1544.949219 1532.5 C 1544.949219 1546.660156 1555.289062 1558.140625 1568.039062 1558.140625 C 1580.789062 1558.140625 1591.128906 1546.660156 1591.128906 1532.5 "/>
<path fill-rule="evenodd" fill="rgb(94.53125%, 94.53125%, 94.53125%)" fill-opacity="1" d="M 1590.03125 1532.5 C 1590.03125 1545.988281 1580.179688 1556.921875 1568.039062 1556.921875 C 1555.898438 1556.921875 1546.050781 1545.988281 1546.050781 1532.5 C 1546.050781 1519.011719 1555.898438 1508.078125 1568.039062 1508.078125 C 1580.179688 1508.078125 1590.03125 1519.011719 1590.03125 1532.5 Z M 1593.328125 1532.5 C 1593.328125 1516.988281 1582.011719 1504.421875 1568.039062 1504.421875 C 1554.070312 1504.421875 1542.75 1516.988281 1542.75 1532.5 C 1542.75 1548.011719 1554.070312 1560.578125 1568.039062 1560.578125 C 1582.011719 1560.578125 1593.328125 1548.011719 1593.328125 1532.5 "/>
<path fill-rule="evenodd" fill="rgb(94.139099%, 94.139099%, 94.139099%)" fill-opacity="1" d="M 1592.230469 1532.5 C 1592.230469 1547.339844 1581.398438 1559.359375 1568.039062 1559.359375 C 1554.679688 1559.359375 1543.851562 1547.339844 1543.851562 1532.5 C 1543.851562 1517.671875 1554.679688 1505.640625 1568.039062 1505.640625 C 1581.398438 1505.640625 1592.230469 1517.671875 1592.230469 1532.5 Z M 1595.53125 1532.5 C 1595.53125 1515.640625 1583.21875 1501.96875 1568.039062 1501.96875 C 1552.859375 1501.96875 1540.550781 1515.640625 1540.550781 1532.5 C 1540.550781 1549.359375 1552.859375 1563.03125 1568.039062 1563.03125 C 1583.21875 1563.03125 1595.53125 1549.359375 1595.53125 1532.5 "/>
<path fill-rule="evenodd" fill="rgb(93.359375%, 93.359375%, 93.359375%)" fill-opacity="1" d="M 1594.429688 1532.5 C 1594.429688 1548.691406 1582.609375 1561.808594 1568.039062 1561.808594 C 1553.46875 1561.808594 1541.648438 1548.691406 1541.648438 1532.5 C 1541.648438 1516.320312 1553.46875 1503.199219 1568.039062 1503.199219 C 1582.609375 1503.199219 1594.429688 1516.320312 1594.429688 1532.5 Z M 1597.730469 1532.5 C 1597.730469 1514.289062 1584.429688 1499.53125 1568.039062 1499.53125 C 1551.640625 1499.53125 1538.359375 1514.289062 1538.359375 1532.5 C 1538.359375 1550.710938 1551.640625 1565.46875 1568.039062 1565.46875 C 1584.429688 1565.46875 1597.730469 1550.710938 1597.730469 1532.5 "/>
<path fill-rule="evenodd" fill="rgb(92.96875%, 92.96875%, 92.96875%)" fill-opacity="1" d="M 1596.628906 1532.5 C 1596.628906 1550.03125 1583.828125 1564.25 1568.039062 1564.25 C 1552.25 1564.25 1539.449219 1550.03125 1539.449219 1532.5 C 1539.449219 1514.96875 1552.25 1500.761719 1568.039062 1500.761719 C 1583.828125 1500.761719 1596.628906 1514.96875 1596.628906 1532.5 Z M 1599.921875 1532.5 C 1599.921875 1512.949219 1585.648438 1497.089844 1568.039062 1497.089844 C 1550.429688 1497.089844 1536.160156 1512.949219 1536.160156 1532.5 C 1536.160156 1552.058594 1550.429688 1567.910156 1568.039062 1567.910156 C 1585.648438 1567.910156 1599.921875 1552.058594 1599.921875 1532.5 "/>
<path fill-rule="evenodd" fill="rgb(92.1875%, 92.1875%, 92.1875%)" fill-opacity="1" d="M 1598.820312 1532.5 C 1598.820312 1551.378906 1585.039062 1566.691406 1568.039062 1566.691406 C 1551.039062 1566.691406 1537.25 1551.378906 1537.25 1532.5 C 1537.25 1513.621094 1551.039062 1498.308594 1568.039062 1498.308594 C 1585.039062 1498.308594 1598.820312 1513.621094 1598.820312 1532.5 Z M 1602.121094 1532.5 C 1602.121094 1511.601562 1586.859375 1494.648438 1568.039062 1494.648438 C 1549.21875 1494.648438 1533.960938 1511.601562 1533.960938 1532.5 C 1533.960938 1553.410156 1549.21875 1570.351562 1568.039062 1570.351562 C 1586.859375 1570.351562 1602.121094 1553.410156 1602.121094 1532.5 "/>
<path fill-rule="evenodd" fill="rgb(91.796875%, 91.796875%, 91.796875%)" fill-opacity="1" d="M 1601.019531 1532.5 C 1601.019531 1552.730469 1586.261719 1569.128906 1568.039062 1569.128906 C 1549.820312 1569.128906 1535.058594 1552.730469 1535.058594 1532.5 C 1535.058594 1512.269531 1549.820312 1495.871094 1568.039062 1495.871094 C 1586.261719 1495.871094 1601.019531 1512.269531 1601.019531 1532.5 Z M 1604.320312 1532.5 C 1604.320312 1510.25 1588.078125 1492.210938 1568.039062 1492.210938 C 1548 1492.210938 1531.761719 1510.25 1531.761719 1532.5 C 1531.761719 1554.75 1548 1572.800781 1568.039062 1572.800781 C 1588.078125 1572.800781 1604.320312 1554.75 1604.320312 1532.5 "/>
<path fill-rule="evenodd" fill="rgb(91.40625%, 91.40625%, 91.40625%)" fill-opacity="1" d="M 1603.21875 1532.5 C 1603.21875 1554.078125 1587.46875 1571.570312 1568.039062 1571.570312 C 1548.609375 1571.570312 1532.859375 1554.078125 1532.859375 1532.5 C 1532.859375 1510.921875 1548.609375 1493.429688 1568.039062 1493.429688 C 1587.46875 1493.429688 1603.21875 1510.921875 1603.21875 1532.5 Z M 1606.519531 1532.5 C 1606.519531 1508.898438 1589.289062 1489.769531 1568.039062 1489.769531 C 1546.789062 1489.769531 1529.558594 1508.898438 1529.558594 1532.5 C 1529.558594 1556.101562 1546.789062 1575.238281 1568.039062 1575.238281 C 1589.289062 1575.238281 1606.519531 1556.101562 1606.519531 1532.5 "/>
<path fill-rule="evenodd" fill="rgb(90.625%, 90.625%, 90.625%)" fill-opacity="1" d="M 1605.421875 1532.5 C 1605.421875 1555.429688 1588.691406 1574.019531 1568.039062 1574.019531 C 1547.390625 1574.019531 1530.660156 1555.429688 1530.660156 1532.5 C 1530.660156 1509.570312 1547.390625 1490.988281 1568.039062 1490.988281 C 1588.691406 1490.988281 1605.421875 1509.570312 1605.421875 1532.5 Z M 1608.71875 1532.5 C 1608.71875 1507.550781 1590.511719 1487.320312 1568.039062 1487.320312 C 1545.570312 1487.320312 1527.359375 1507.550781 1527.359375 1532.5 C 1527.359375 1557.449219 1545.570312 1577.679688 1568.039062 1577.679688 C 1590.511719 1577.679688 1608.71875 1557.449219 1608.71875 1532.5 "/>
<path fill-rule="evenodd" fill="rgb(90.234375%, 90.234375%, 90.234375%)" fill-opacity="1" d="M 1607.621094 1532.5 C 1607.621094 1556.78125 1589.898438 1576.460938 1568.039062 1576.460938 C 1546.179688 1576.460938 1528.460938 1556.78125 1528.460938 1532.5 C 1528.460938 1508.21875 1546.179688 1488.539062 1568.039062 1488.539062 C 1589.898438 1488.539062 1607.621094 1508.21875 1607.621094 1532.5 Z M 1610.921875 1532.5 C 1610.921875 1506.199219 1591.71875 1484.878906 1568.039062 1484.878906 C 1544.359375 1484.878906 1525.160156 1506.199219 1525.160156 1532.5 C 1525.160156 1558.800781 1544.359375 1580.121094 1568.039062 1580.121094 C 1591.71875 1580.121094 1610.921875 1558.800781 1610.921875 1532.5 "/>
<path fill-rule="evenodd" fill="rgb(89.451599%, 89.451599%, 89.451599%)" fill-opacity="1" d="M 1609.820312 1532.5 C 1609.820312 1558.128906 1591.109375 1578.898438 1568.039062 1578.898438 C 1544.96875 1578.898438 1526.261719 1558.128906 1526.261719 1532.5 C 1526.261719 1506.878906 1544.96875 1486.101562 1568.039062 1486.101562 C 1591.109375 1486.101562 1609.820312 1506.878906 1609.820312 1532.5 Z M 1613.121094 1532.5 C 1613.121094 1504.851562 1592.929688 1482.441406 1568.039062 1482.441406 C 1543.148438 1482.441406 1522.960938 1504.851562 1522.960938 1532.5 C 1522.960938 1560.148438 1543.148438 1582.558594 1568.039062 1582.558594 C 1592.929688 1582.558594 1613.121094 1560.148438 1613.121094 1532.5 "/>
<path fill-rule="evenodd" fill="rgb(89.0625%, 89.0625%, 89.0625%)" fill-opacity="1" d="M 1612.019531 1532.5 C 1612.019531 1559.480469 1592.328125 1581.339844 1568.039062 1581.339844 C 1543.75 1581.339844 1524.058594 1559.480469 1524.058594 1532.5 C 1524.058594 1505.53125 1543.75 1483.660156 1568.039062 1483.660156 C 1592.328125 1483.660156 1612.019531 1505.53125 1612.019531 1532.5 Z M 1615.320312 1532.5 C 1615.320312 1503.5 1594.148438 1480 1568.039062 1480 C 1541.929688 1480 1520.761719 1503.5 1520.761719 1532.5 C 1520.761719 1561.5 1541.929688 1585.011719 1568.039062 1585.011719 C 1594.148438 1585.011719 1615.320312 1561.5 1615.320312 1532.5 "/>
<path fill-rule="evenodd" fill="rgb(88.671875%, 88.671875%, 88.671875%)" fill-opacity="1" d="M 1614.21875 1532.5 C 1614.21875 1560.820312 1593.539062 1583.78125 1568.039062 1583.78125 C 1542.539062 1583.78125 1521.859375 1560.820312 1521.859375 1532.5 C 1521.859375 1504.179688 1542.539062 1481.21875 1568.039062 1481.21875 C 1593.539062 1481.21875 1614.21875 1504.179688 1614.21875 1532.5 Z M 1617.519531 1532.5 C 1617.519531 1502.160156 1595.359375 1477.558594 1568.039062 1477.558594 C 1540.71875 1477.558594 1518.558594 1502.160156 1518.558594 1532.5 C 1518.558594 1562.851562 1540.71875 1587.449219 1568.039062 1587.449219 C 1595.359375 1587.449219 1617.519531 1562.851562 1617.519531 1532.5 "/>
<path fill-rule="evenodd" fill="rgb(87.889099%, 87.889099%, 87.889099%)" fill-opacity="1" d="M 1616.421875 1532.5 C 1616.421875 1562.171875 1594.761719 1586.230469 1568.039062 1586.230469 C 1541.320312 1586.230469 1519.660156 1562.171875 1519.660156 1532.5 C 1519.660156 1502.828125 1541.320312 1478.78125 1568.039062 1478.78125 C 1594.761719 1478.78125 1616.421875 1502.828125 1616.421875 1532.5 Z M 1619.710938 1532.5 C 1619.710938 1500.808594 1596.578125 1475.109375 1568.039062 1475.109375 C 1539.5 1475.109375 1516.371094 1500.808594 1516.371094 1532.5 C 1516.371094 1564.191406 1539.5 1589.890625 1568.039062 1589.890625 C 1596.578125 1589.890625 1619.710938 1564.191406 1619.710938 1532.5 "/>
<path fill-rule="evenodd" fill="rgb(87.5%, 87.5%, 87.5%)" fill-opacity="1" d="M 1618.609375 1532.5 C 1618.609375 1563.519531 1595.96875 1588.671875 1568.039062 1588.671875 C 1540.109375 1588.671875 1517.46875 1563.519531 1517.46875 1532.5 C 1517.46875 1501.480469 1540.109375 1476.328125 1568.039062 1476.328125 C 1595.96875 1476.328125 1618.609375 1501.480469 1618.609375 1532.5 Z M 1621.910156 1532.5 C 1621.910156 1499.460938 1597.789062 1472.671875 1568.039062 1472.671875 C 1538.289062 1472.671875 1514.171875 1499.460938 1514.171875 1532.5 C 1514.171875 1565.539062 1538.289062 1592.328125 1568.039062 1592.328125 C 1597.789062 1592.328125 1621.910156 1565.539062 1621.910156 1532.5 "/>
<path fill-rule="evenodd" fill="rgb(86.71875%, 86.71875%, 86.71875%)" fill-opacity="1" d="M 1620.808594 1532.5 C 1620.808594 1564.871094 1597.191406 1591.109375 1568.039062 1591.109375 C 1538.890625 1591.109375 1515.269531 1564.871094 1515.269531 1532.5 C 1515.269531 1500.128906 1538.890625 1473.890625 1568.039062 1473.890625 C 1597.191406 1473.890625 1620.808594 1500.128906 1620.808594 1532.5 Z M 1624.109375 1532.5 C 1624.109375 1498.109375 1599.011719 1470.230469 1568.039062 1470.230469 C 1537.070312 1470.230469 1511.96875 1498.109375 1511.96875 1532.5 C 1511.96875 1566.890625 1537.070312 1594.769531 1568.039062 1594.769531 C 1599.011719 1594.769531 1624.109375 1566.890625 1624.109375 1532.5 "/>
<path fill-rule="evenodd" fill="rgb(86.326599%, 86.326599%, 86.326599%)" fill-opacity="1" d="M 1623.011719 1532.5 C 1623.011719 1566.21875 1598.398438 1593.550781 1568.039062 1593.550781 C 1537.679688 1593.550781 1513.070312 1566.21875 1513.070312 1532.5 C 1513.070312 1498.78125 1537.679688 1471.449219 1568.039062 1471.449219 C 1598.398438 1471.449219 1623.011719 1498.78125 1623.011719 1532.5 Z M 1626.308594 1532.5 C 1626.308594 1496.761719 1600.21875 1467.789062 1568.039062 1467.789062 C 1535.859375 1467.789062 1509.769531 1496.761719 1509.769531 1532.5 C 1509.769531 1568.238281 1535.859375 1597.21875 1568.039062 1597.21875 C 1600.21875 1597.21875 1626.308594 1568.238281 1626.308594 1532.5 "/>
<path fill-rule="evenodd" fill="rgb(85.9375%, 85.9375%, 85.9375%)" fill-opacity="1" d="M 1625.210938 1532.5 C 1625.210938 1567.570312 1599.609375 1595.988281 1568.039062 1595.988281 C 1536.46875 1595.988281 1510.871094 1567.570312 1510.871094 1532.5 C 1510.871094 1497.429688 1536.46875 1469.011719 1568.039062 1469.011719 C 1599.609375 1469.011719 1625.210938 1497.429688 1625.210938 1532.5 Z M 1628.511719 1532.5 C 1628.511719 1495.410156 1601.441406 1465.351562 1568.039062 1465.351562 C 1534.640625 1465.351562 1507.570312 1495.410156 1507.570312 1532.5 C 1507.570312 1569.589844 1534.640625 1599.660156 1568.039062 1599.660156 C 1601.441406 1599.660156 1628.511719 1569.589844 1628.511719 1532.5 "/>
<path fill-rule="evenodd" fill="rgb(85.15625%, 85.15625%, 85.15625%)" fill-opacity="1" d="M 1627.410156 1532.5 C 1627.410156 1568.921875 1600.828125 1598.441406 1568.039062 1598.441406 C 1535.25 1598.441406 1508.671875 1568.921875 1508.671875 1532.5 C 1508.671875 1496.089844 1535.25 1466.570312 1568.039062 1466.570312 C 1600.828125 1466.570312 1627.410156 1496.089844 1627.410156 1532.5 Z M 1630.710938 1532.5 C 1630.710938 1494.058594 1602.648438 1462.898438 1568.039062 1462.898438 C 1533.429688 1462.898438 1505.371094 1494.058594 1505.371094 1532.5 C 1505.371094 1570.941406 1533.429688 1602.101562 1568.039062 1602.101562 C 1602.648438 1602.101562 1630.710938 1570.941406 1630.710938 1532.5 "/>
<path fill-rule="evenodd" fill="rgb(84.764099%, 84.764099%, 84.764099%)" fill-opacity="1" d="M 1629.609375 1532.5 C 1629.609375 1570.261719 1602.039062 1600.878906 1568.039062 1600.878906 C 1534.039062 1600.878906 1506.46875 1570.261719 1506.46875 1532.5 C 1506.46875 1494.738281 1534.039062 1464.121094 1568.039062 1464.121094 C 1602.039062 1464.121094 1629.609375 1494.738281 1629.609375 1532.5 Z M 1632.910156 1532.5 C 1632.910156 1492.71875 1603.871094 1460.460938 1568.039062 1460.460938 C 1532.210938 1460.460938 1503.171875 1492.71875 1503.171875 1532.5 C 1503.171875 1572.289062 1532.210938 1604.539062 1568.039062 1604.539062 C 1603.871094 1604.539062 1632.910156 1572.289062 1632.910156 1532.5 "/>
<path fill-rule="evenodd" fill="rgb(83.984375%, 83.984375%, 83.984375%)" fill-opacity="1" d="M 1631.808594 1532.5 C 1631.808594 1571.609375 1603.261719 1603.320312 1568.039062 1603.320312 C 1532.820312 1603.320312 1504.269531 1571.609375 1504.269531 1532.5 C 1504.269531 1493.390625 1532.820312 1461.679688 1568.039062 1461.679688 C 1603.261719 1461.679688 1631.808594 1493.390625 1631.808594 1532.5 Z M 1635.109375 1532.5 C 1635.109375 1491.371094 1605.078125 1458.019531 1568.039062 1458.019531 C 1531 1458.019531 1500.96875 1491.371094 1500.96875 1532.5 C 1500.96875 1573.640625 1531 1606.980469 1568.039062 1606.980469 C 1605.078125 1606.980469 1635.109375 1573.640625 1635.109375 1532.5 "/>
<path fill-rule="evenodd" fill="rgb(83.59375%, 83.59375%, 83.59375%)" fill-opacity="1" d="M 1634.011719 1532.5 C 1634.011719 1572.960938 1604.46875 1605.761719 1568.039062 1605.761719 C 1531.609375 1605.761719 1502.070312 1572.960938 1502.070312 1532.5 C 1502.070312 1492.039062 1531.609375 1459.238281 1568.039062 1459.238281 C 1604.46875 1459.238281 1634.011719 1492.039062 1634.011719 1532.5 Z M 1637.300781 1532.5 C 1637.300781 1490.019531 1606.289062 1455.578125 1568.039062 1455.578125 C 1529.789062 1455.578125 1498.78125 1490.019531 1498.78125 1532.5 C 1498.78125 1574.980469 1529.789062 1609.421875 1568.039062 1609.421875 C 1606.289062 1609.421875 1637.300781 1574.980469 1637.300781 1532.5 "/>
<path fill-rule="evenodd" fill="rgb(83.201599%, 83.201599%, 83.201599%)" fill-opacity="1" d="M 1636.210938 1532.5 C 1636.210938 1574.308594 1605.691406 1608.199219 1568.039062 1608.199219 C 1530.390625 1608.199219 1499.871094 1574.308594 1499.871094 1532.5 C 1499.871094 1490.691406 1530.390625 1456.800781 1568.039062 1456.800781 C 1605.691406 1456.800781 1636.210938 1490.691406 1636.210938 1532.5 Z M 1639.5 1532.5 C 1639.5 1488.671875 1607.511719 1453.128906 1568.039062 1453.128906 C 1528.570312 1453.128906 1496.578125 1488.671875 1496.578125 1532.5 C 1496.578125 1576.328125 1528.570312 1611.871094 1568.039062 1611.871094 C 1607.511719 1611.871094 1639.5 1576.328125 1639.5 1532.5 "/>
<path fill-rule="evenodd" fill="rgb(82.421875%, 82.421875%, 82.421875%)" fill-opacity="1" d="M 1638.398438 1532.5 C 1638.398438 1575.660156 1606.898438 1610.648438 1568.039062 1610.648438 C 1529.179688 1610.648438 1497.679688 1575.660156 1497.679688 1532.5 C 1497.679688 1489.339844 1529.179688 1454.359375 1568.039062 1454.359375 C 1606.898438 1454.359375 1638.398438 1489.339844 1638.398438 1532.5 Z M 1641.699219 1532.5 C 1641.699219 1487.320312 1608.71875 1450.691406 1568.039062 1450.691406 C 1527.359375 1450.691406 1494.378906 1487.320312 1494.378906 1532.5 C 1494.378906 1577.679688 1527.359375 1614.308594 1568.039062 1614.308594 C 1608.71875 1614.308594 1641.699219 1577.679688 1641.699219 1532.5 "/>
<path fill-rule="evenodd" fill="rgb(82.03125%, 82.03125%, 82.03125%)" fill-opacity="1" d="M 1640.601562 1532.5 C 1640.601562 1577.011719 1608.121094 1613.089844 1568.039062 1613.089844 C 1527.960938 1613.089844 1495.480469 1577.011719 1495.480469 1532.5 C 1495.480469 1487.988281 1527.960938 1451.910156 1568.039062 1451.910156 C 1608.121094 1451.910156 1640.601562 1487.988281 1640.601562 1532.5 Z M 1643.898438 1532.5 C 1643.898438 1485.96875 1609.941406 1448.25 1568.039062 1448.25 C 1526.140625 1448.25 1492.179688 1485.96875 1492.179688 1532.5 C 1492.179688 1579.03125 1526.140625 1616.75 1568.039062 1616.75 C 1609.941406 1616.75 1643.898438 1579.03125 1643.898438 1532.5 "/>
<path fill-rule="evenodd" fill="rgb(81.25%, 81.25%, 81.25%)" fill-opacity="1" d="M 1642.800781 1532.5 C 1642.800781 1578.359375 1609.328125 1615.53125 1568.039062 1615.53125 C 1526.75 1615.53125 1493.28125 1578.359375 1493.28125 1532.5 C 1493.28125 1486.640625 1526.75 1449.46875 1568.039062 1449.46875 C 1609.328125 1449.46875 1642.800781 1486.640625 1642.800781 1532.5 Z M 1646.101562 1532.5 C 1646.101562 1484.621094 1611.148438 1445.808594 1568.039062 1445.808594 C 1524.929688 1445.808594 1489.980469 1484.621094 1489.980469 1532.5 C 1489.980469 1580.378906 1524.929688 1619.191406 1568.039062 1619.191406 C 1611.148438 1619.191406 1646.101562 1580.378906 1646.101562 1532.5 "/>
<path fill-rule="evenodd" fill="rgb(80.859375%, 80.859375%, 80.859375%)" fill-opacity="1" d="M 1645 1532.5 C 1645 1579.710938 1610.539062 1617.96875 1568.039062 1617.96875 C 1525.539062 1617.96875 1491.078125 1579.710938 1491.078125 1532.5 C 1491.078125 1485.300781 1525.539062 1447.03125 1568.039062 1447.03125 C 1610.539062 1447.03125 1645 1485.300781 1645 1532.5 Z M 1648.300781 1532.5 C 1648.300781 1483.269531 1612.371094 1443.371094 1568.039062 1443.371094 C 1523.710938 1443.371094 1487.78125 1483.269531 1487.78125 1532.5 C 1487.78125 1581.730469 1523.710938 1621.628906 1568.039062 1621.628906 C 1612.371094 1621.628906 1648.300781 1581.730469 1648.300781 1532.5 "/>
<path fill-rule="evenodd" fill="rgb(80.46875%, 80.46875%, 80.46875%)" fill-opacity="1" d="M 1647.199219 1532.5 C 1647.199219 1581.050781 1611.761719 1620.410156 1568.039062 1620.410156 C 1524.320312 1620.410156 1488.878906 1581.050781 1488.878906 1532.5 C 1488.878906 1483.949219 1524.320312 1444.589844 1568.039062 1444.589844 C 1611.761719 1444.589844 1647.199219 1483.949219 1647.199219 1532.5 Z M 1650.5 1532.5 C 1650.5 1481.921875 1613.578125 1440.921875 1568.039062 1440.921875 C 1522.5 1440.921875 1485.578125 1481.921875 1485.578125 1532.5 C 1485.578125 1583.078125 1522.5 1624.078125 1568.039062 1624.078125 C 1613.578125 1624.078125 1650.5 1583.078125 1650.5 1532.5 "/>
<path fill-rule="evenodd" fill="rgb(79.6875%, 79.6875%, 79.6875%)" fill-opacity="1" d="M 1649.398438 1532.5 C 1649.398438 1582.398438 1612.96875 1622.859375 1568.039062 1622.859375 C 1523.109375 1622.859375 1486.679688 1582.398438 1486.679688 1532.5 C 1486.679688 1482.601562 1523.109375 1442.148438 1568.039062 1442.148438 C 1612.96875 1442.148438 1649.398438 1482.601562 1649.398438 1532.5 Z M 1652.699219 1532.5 C 1652.699219 1480.578125 1614.789062 1438.480469 1568.039062 1438.480469 C 1521.289062 1438.480469 1483.378906 1480.578125 1483.378906 1532.5 C 1483.378906 1584.429688 1521.289062 1626.519531 1568.039062 1626.519531 C 1614.789062 1626.519531 1652.699219 1584.429688 1652.699219 1532.5 "/>
<path fill-rule="evenodd" fill="rgb(79.296875%, 79.296875%, 79.296875%)" fill-opacity="1" d="M 1651.601562 1532.5 C 1651.601562 1583.75 1614.191406 1625.300781 1568.039062 1625.300781 C 1521.890625 1625.300781 1484.480469 1583.75 1484.480469 1532.5 C 1484.480469 1481.25 1521.890625 1439.699219 1568.039062 1439.699219 C 1614.191406 1439.699219 1651.601562 1481.25 1651.601562 1532.5 Z M 1654.898438 1532.5 C 1654.898438 1479.230469 1616.011719 1436.039062 1568.039062 1436.039062 C 1520.070312 1436.039062 1481.179688 1479.230469 1481.179688 1532.5 C 1481.179688 1585.769531 1520.070312 1628.960938 1568.039062 1628.960938 C 1616.011719 1628.960938 1654.898438 1585.769531 1654.898438 1532.5 "/>
<path fill-rule="evenodd" fill="rgb(78.514099%, 78.514099%, 78.514099%)" fill-opacity="1" d="M 1653.800781 1532.5 C 1653.800781 1585.101562 1615.398438 1627.738281 1568.039062 1627.738281 C 1520.679688 1627.738281 1482.28125 1585.101562 1482.28125 1532.5 C 1482.28125 1479.898438 1520.679688 1437.261719 1568.039062 1437.261719 C 1615.398438 1437.261719 1653.800781 1479.898438 1653.800781 1532.5 Z M 1657.089844 1532.5 C 1657.089844 1477.878906 1617.21875 1433.601562 1568.039062 1433.601562 C 1518.859375 1433.601562 1478.980469 1477.878906 1478.980469 1532.5 C 1478.980469 1587.121094 1518.859375 1631.398438 1568.039062 1631.398438 C 1617.21875 1631.398438 1657.089844 1587.121094 1657.089844 1532.5 "/>
<path fill-rule="evenodd" fill="rgb(78.125%, 78.125%, 78.125%)" fill-opacity="1" d="M 1655.988281 1532.5 C 1655.988281 1586.449219 1616.621094 1630.179688 1568.039062 1630.179688 C 1519.460938 1630.179688 1480.089844 1586.449219 1480.089844 1532.5 C 1480.089844 1478.550781 1519.460938 1434.820312 1568.039062 1434.820312 C 1616.621094 1434.820312 1655.988281 1478.550781 1655.988281 1532.5 Z M 1659.289062 1532.5 C 1659.289062 1476.53125 1618.441406 1431.160156 1568.039062 1431.160156 C 1517.640625 1431.160156 1476.789062 1476.53125 1476.789062 1532.5 C 1476.789062 1588.46875 1517.640625 1633.839844 1568.039062 1633.839844 C 1618.441406 1633.839844 1659.289062 1588.46875 1659.289062 1532.5 "/>
<path fill-rule="evenodd" fill="rgb(77.734375%, 77.734375%, 77.734375%)" fill-opacity="1" d="M 1658.191406 1532.5 C 1658.191406 1587.800781 1617.828125 1632.621094 1568.039062 1632.621094 C 1518.25 1632.621094 1477.878906 1587.800781 1477.878906 1532.5 C 1477.878906 1477.199219 1518.25 1432.378906 1568.039062 1432.378906 C 1617.828125 1432.378906 1658.191406 1477.199219 1658.191406 1532.5 Z M 1661.488281 1532.5 C 1661.488281 1475.179688 1619.648438 1428.710938 1568.039062 1428.710938 C 1516.429688 1428.710938 1474.589844 1475.179688 1474.589844 1532.5 C 1474.589844 1589.820312 1516.429688 1636.289062 1568.039062 1636.289062 C 1619.648438 1636.289062 1661.488281 1589.820312 1661.488281 1532.5 "/>
<path fill-rule="evenodd" fill="rgb(76.951599%, 76.951599%, 76.951599%)" fill-opacity="1" d="M 1660.390625 1532.5 C 1660.390625 1589.148438 1619.039062 1635.070312 1568.039062 1635.070312 C 1517.039062 1635.070312 1475.691406 1589.148438 1475.691406 1532.5 C 1475.691406 1475.859375 1517.039062 1429.941406 1568.039062 1429.941406 C 1619.039062 1429.941406 1660.390625 1475.859375 1660.390625 1532.5 Z M 1663.691406 1532.5 C 1663.691406 1473.828125 1620.871094 1426.269531 1568.039062 1426.269531 C 1515.210938 1426.269531 1472.390625 1473.828125 1472.390625 1532.5 C 1472.390625 1591.171875 1515.210938 1638.730469 1568.039062 1638.730469 C 1620.871094 1638.730469 1663.691406 1591.171875 1663.691406 1532.5 "/>
<path fill-rule="evenodd" fill="rgb(76.5625%, 76.5625%, 76.5625%)" fill-opacity="1" d="M 1662.589844 1532.5 C 1662.589844 1590.488281 1620.261719 1637.511719 1568.039062 1637.511719 C 1515.820312 1637.511719 1473.488281 1590.488281 1473.488281 1532.5 C 1473.488281 1474.511719 1515.820312 1427.488281 1568.039062 1427.488281 C 1620.261719 1427.488281 1662.589844 1474.511719 1662.589844 1532.5 Z M 1665.890625 1532.5 C 1665.890625 1472.480469 1622.078125 1423.828125 1568.039062 1423.828125 C 1514 1423.828125 1470.191406 1472.480469 1470.191406 1532.5 C 1470.191406 1592.519531 1514 1641.171875 1568.039062 1641.171875 C 1622.078125 1641.171875 1665.890625 1592.519531 1665.890625 1532.5 "/>
<path fill-rule="evenodd" fill="rgb(75.78125%, 75.78125%, 75.78125%)" fill-opacity="1" d="M 1664.789062 1532.5 C 1664.789062 1591.839844 1621.46875 1639.949219 1568.039062 1639.949219 C 1514.609375 1639.949219 1471.289062 1591.839844 1471.289062 1532.5 C 1471.289062 1473.160156 1514.609375 1425.050781 1568.039062 1425.050781 C 1621.46875 1425.050781 1664.789062 1473.160156 1664.789062 1532.5 Z M 1668.089844 1532.5 C 1668.089844 1471.140625 1623.300781 1421.390625 1568.039062 1421.390625 C 1512.78125 1421.390625 1467.988281 1471.140625 1467.988281 1532.5 C 1467.988281 1593.871094 1512.78125 1643.609375 1568.039062 1643.609375 C 1623.300781 1643.609375 1668.089844 1593.871094 1668.089844 1532.5 "/>
<path fill-rule="evenodd" fill="rgb(75.193787%, 75.193787%, 75.193787%)" fill-opacity="1" d="M 1666.988281 1532.5 C 1666.988281 1593.191406 1622.691406 1642.390625 1568.039062 1642.390625 C 1513.390625 1642.390625 1469.089844 1593.191406 1469.089844 1532.5 C 1469.089844 1471.808594 1513.390625 1422.609375 1568.039062 1422.609375 C 1622.691406 1422.609375 1666.988281 1471.808594 1666.988281 1532.5 Z M 1670.289062 1532.5 C 1670.289062 1469.789062 1624.511719 1418.949219 1568.039062 1418.949219 C 1511.570312 1418.949219 1465.789062 1469.789062 1465.789062 1532.5 C 1465.789062 1595.21875 1511.570312 1646.050781 1568.039062 1646.050781 C 1624.511719 1646.050781 1670.289062 1595.21875 1670.289062 1532.5 "/>
<path fill-rule="evenodd" fill="rgb(74.804688%, 74.804688%, 74.804688%)" fill-opacity="1" d="M 1669.191406 1532.5 C 1669.191406 1594.539062 1623.898438 1644.828125 1568.039062 1644.828125 C 1512.179688 1644.828125 1466.890625 1594.539062 1466.890625 1532.5 C 1466.890625 1470.460938 1512.179688 1420.171875 1568.039062 1420.171875 C 1623.898438 1420.171875 1669.191406 1470.460938 1669.191406 1532.5 Z M 1672.488281 1532.5 C 1672.488281 1468.441406 1625.71875 1416.5 1568.039062 1416.5 C 1510.359375 1416.5 1463.589844 1468.441406 1463.589844 1532.5 C 1463.589844 1596.558594 1510.359375 1648.5 1568.039062 1648.5 C 1625.71875 1648.5 1672.488281 1596.558594 1672.488281 1532.5 "/>
<path fill-rule="evenodd" fill="rgb(74.021912%, 74.021912%, 74.021912%)" fill-opacity="1" d="M 1671.390625 1532.5 C 1671.390625 1595.890625 1625.121094 1647.28125 1568.039062 1647.28125 C 1510.960938 1647.28125 1464.691406 1595.890625 1464.691406 1532.5 C 1464.691406 1469.109375 1510.960938 1417.71875 1568.039062 1417.71875 C 1625.121094 1417.71875 1671.390625 1469.109375 1671.390625 1532.5 Z M 1674.691406 1532.5 C 1674.691406 1467.089844 1626.941406 1414.058594 1568.039062 1414.058594 C 1509.140625 1414.058594 1461.390625 1467.089844 1461.390625 1532.5 C 1461.390625 1597.910156 1509.140625 1650.941406 1568.039062 1650.941406 C 1626.941406 1650.941406 1674.691406 1597.910156 1674.691406 1532.5 "/>
<path fill-rule="evenodd" fill="rgb(73.631287%, 73.631287%, 73.631287%)" fill-opacity="1" d="M 1673.589844 1532.5 C 1673.589844 1597.238281 1626.328125 1649.71875 1568.039062 1649.71875 C 1509.75 1649.71875 1462.488281 1597.238281 1462.488281 1532.5 C 1462.488281 1467.761719 1509.75 1415.28125 1568.039062 1415.28125 C 1626.328125 1415.28125 1673.589844 1467.761719 1673.589844 1532.5 Z M 1676.890625 1532.5 C 1676.890625 1465.738281 1628.148438 1411.621094 1568.039062 1411.621094 C 1507.929688 1411.621094 1459.191406 1465.738281 1459.191406 1532.5 C 1459.191406 1599.261719 1507.929688 1653.378906 1568.039062 1653.378906 C 1628.148438 1653.378906 1676.890625 1599.261719 1676.890625 1532.5 "/>
<path fill-rule="evenodd" fill="rgb(72.851562%, 72.851562%, 72.851562%)" fill-opacity="1" d="M 1675.789062 1532.5 C 1675.789062 1598.589844 1627.550781 1652.160156 1568.039062 1652.160156 C 1508.53125 1652.160156 1460.289062 1598.589844 1460.289062 1532.5 C 1460.289062 1466.410156 1508.53125 1412.839844 1568.039062 1412.839844 C 1627.550781 1412.839844 1675.789062 1466.410156 1675.789062 1532.5 Z M 1679.078125 1532.5 C 1679.078125 1464.390625 1629.371094 1409.179688 1568.039062 1409.179688 C 1506.710938 1409.179688 1457 1464.390625 1457 1532.5 C 1457 1600.609375 1506.710938 1655.820312 1568.039062 1655.820312 C 1629.371094 1655.820312 1679.078125 1600.609375 1679.078125 1532.5 "/>
<path fill-rule="evenodd" fill="rgb(72.459412%, 72.459412%, 72.459412%)" fill-opacity="1" d="M 1677.980469 1532.5 C 1677.980469 1599.929688 1628.761719 1654.601562 1568.039062 1654.601562 C 1507.320312 1654.601562 1458.101562 1599.929688 1458.101562 1532.5 C 1458.101562 1465.070312 1507.320312 1410.398438 1568.039062 1410.398438 C 1628.761719 1410.398438 1677.980469 1465.070312 1677.980469 1532.5 Z M 1681.28125 1532.5 C 1681.28125 1463.039062 1630.578125 1406.738281 1568.039062 1406.738281 C 1505.5 1406.738281 1454.800781 1463.039062 1454.800781 1532.5 C 1454.800781 1601.960938 1505.5 1658.269531 1568.039062 1658.269531 C 1630.578125 1658.269531 1681.28125 1601.960938 1681.28125 1532.5 "/>
<path fill-rule="evenodd" fill="rgb(72.068787%, 72.068787%, 72.068787%)" fill-opacity="1" d="M 1680.179688 1532.5 C 1680.179688 1601.289062 1629.980469 1657.039062 1568.039062 1657.039062 C 1506.101562 1657.039062 1455.898438 1601.289062 1455.898438 1532.5 C 1455.898438 1463.71875 1506.101562 1407.960938 1568.039062 1407.960938 C 1629.980469 1407.960938 1680.179688 1463.71875 1680.179688 1532.5 Z M 1683.480469 1532.5 C 1683.480469 1461.691406 1631.800781 1404.289062 1568.039062 1404.289062 C 1504.28125 1404.289062 1452.601562 1461.691406 1452.601562 1532.5 C 1452.601562 1603.308594 1504.28125 1660.710938 1568.039062 1660.710938 C 1631.800781 1660.710938 1683.480469 1603.308594 1683.480469 1532.5 "/>
<path fill-rule="evenodd" fill="rgb(71.289062%, 71.289062%, 71.289062%)" fill-opacity="1" d="M 1682.378906 1532.5 C 1682.378906 1602.628906 1631.191406 1659.488281 1568.039062 1659.488281 C 1504.890625 1659.488281 1453.699219 1602.628906 1453.699219 1532.5 C 1453.699219 1462.371094 1504.890625 1405.519531 1568.039062 1405.519531 C 1631.191406 1405.519531 1682.378906 1462.371094 1682.378906 1532.5 Z M 1685.679688 1532.5 C 1685.679688 1460.351562 1633.011719 1401.851562 1568.039062 1401.851562 C 1503.070312 1401.851562 1450.398438 1460.351562 1450.398438 1532.5 C 1450.398438 1604.660156 1503.070312 1663.148438 1568.039062 1663.148438 C 1633.011719 1663.148438 1685.679688 1604.660156 1685.679688 1532.5 "/>
<path fill-rule="evenodd" fill="rgb(70.896912%, 70.896912%, 70.896912%)" fill-opacity="1" d="M 1684.578125 1532.5 C 1684.578125 1603.980469 1632.398438 1661.929688 1568.039062 1661.929688 C 1503.679688 1661.929688 1451.5 1603.980469 1451.5 1532.5 C 1451.5 1461.019531 1503.679688 1403.070312 1568.039062 1403.070312 C 1632.398438 1403.070312 1684.578125 1461.019531 1684.578125 1532.5 Z M 1687.878906 1532.5 C 1687.878906 1459 1634.21875 1399.410156 1568.039062 1399.410156 C 1501.859375 1399.410156 1448.199219 1459 1448.199219 1532.5 C 1448.199219 1606 1501.859375 1665.589844 1568.039062 1665.589844 C 1634.21875 1665.589844 1687.878906 1606 1687.878906 1532.5 "/>
<path fill-rule="evenodd" fill="rgb(70.117188%, 70.117188%, 70.117188%)" fill-opacity="1" d="M 1686.78125 1532.5 C 1686.78125 1605.328125 1633.621094 1664.371094 1568.039062 1664.371094 C 1502.460938 1664.371094 1449.300781 1605.328125 1449.300781 1532.5 C 1449.300781 1459.671875 1502.460938 1400.628906 1568.039062 1400.628906 C 1633.621094 1400.628906 1686.78125 1459.671875 1686.78125 1532.5 Z M 1690.078125 1532.5 C 1690.078125 1457.648438 1635.441406 1396.96875 1568.039062 1396.96875 C 1500.640625 1396.96875 1446 1457.648438 1446 1532.5 C 1446 1607.351562 1500.640625 1668.03125 1568.039062 1668.03125 C 1635.441406 1668.03125 1690.078125 1607.351562 1690.078125 1532.5 "/>
<path fill-rule="evenodd" fill="rgb(69.726562%, 69.726562%, 69.726562%)" fill-opacity="1" d="M 1688.980469 1532.5 C 1688.980469 1606.679688 1634.828125 1666.808594 1568.039062 1666.808594 C 1501.25 1666.808594 1447.101562 1606.679688 1447.101562 1532.5 C 1447.101562 1458.320312 1501.25 1398.191406 1568.039062 1398.191406 C 1634.828125 1398.191406 1688.980469 1458.320312 1688.980469 1532.5 Z M 1692.28125 1532.5 C 1692.28125 1456.300781 1636.648438 1394.53125 1568.039062 1394.53125 C 1499.429688 1394.53125 1443.800781 1456.300781 1443.800781 1532.5 C 1443.800781 1608.699219 1499.429688 1670.480469 1568.039062 1670.480469 C 1636.648438 1670.480469 1692.28125 1608.699219 1692.28125 1532.5 "/>
<path fill-rule="evenodd" fill="rgb(69.334412%, 69.334412%, 69.334412%)" fill-opacity="1" d="M 1691.179688 1532.5 C 1691.179688 1608.03125 1636.050781 1669.261719 1568.039062 1669.261719 C 1500.03125 1669.261719 1444.898438 1608.03125 1444.898438 1532.5 C 1444.898438 1456.96875 1500.03125 1395.75 1568.039062 1395.75 C 1636.050781 1395.75 1691.179688 1456.96875 1691.179688 1532.5 Z M 1694.480469 1532.5 C 1694.480469 1454.949219 1637.871094 1392.089844 1568.039062 1392.089844 C 1498.210938 1392.089844 1441.601562 1454.949219 1441.601562 1532.5 C 1441.601562 1610.050781 1498.210938 1672.921875 1568.039062 1672.921875 C 1637.871094 1672.921875 1694.480469 1610.050781 1694.480469 1532.5 "/>
<path fill-rule="evenodd" fill="rgb(68.554688%, 68.554688%, 68.554688%)" fill-opacity="1" d="M 1693.378906 1532.5 C 1693.378906 1609.378906 1637.261719 1671.699219 1568.039062 1671.699219 C 1498.820312 1671.699219 1442.699219 1609.378906 1442.699219 1532.5 C 1442.699219 1455.628906 1498.820312 1393.308594 1568.039062 1393.308594 C 1637.261719 1393.308594 1693.378906 1455.628906 1693.378906 1532.5 Z M 1696.671875 1532.5 C 1696.671875 1453.601562 1639.078125 1389.640625 1568.039062 1389.640625 C 1497 1389.640625 1439.410156 1453.601562 1439.410156 1532.5 C 1439.410156 1611.398438 1497 1675.359375 1568.039062 1675.359375 C 1639.078125 1675.359375 1696.671875 1611.398438 1696.671875 1532.5 "/>
<path fill-rule="evenodd" fill="rgb(68.164062%, 68.164062%, 68.164062%)" fill-opacity="1" d="M 1695.578125 1532.5 C 1695.578125 1610.730469 1638.480469 1674.140625 1568.039062 1674.140625 C 1497.601562 1674.140625 1440.5 1610.730469 1440.5 1532.5 C 1440.5 1454.28125 1497.601562 1390.859375 1568.039062 1390.859375 C 1638.480469 1390.859375 1695.578125 1454.28125 1695.578125 1532.5 Z M 1698.871094 1532.5 C 1698.871094 1452.25 1640.300781 1387.199219 1568.039062 1387.199219 C 1495.78125 1387.199219 1437.210938 1452.25 1437.210938 1532.5 C 1437.210938 1612.75 1495.78125 1677.800781 1568.039062 1677.800781 C 1640.300781 1677.800781 1698.871094 1612.75 1698.871094 1532.5 "/>
<path fill-rule="evenodd" fill="rgb(67.381287%, 67.381287%, 67.381287%)" fill-opacity="1" d="M 1697.78125 1532.5 C 1697.78125 1612.070312 1639.691406 1676.578125 1568.039062 1676.578125 C 1496.390625 1676.578125 1438.308594 1612.070312 1438.308594 1532.5 C 1438.308594 1452.929688 1496.390625 1388.421875 1568.039062 1388.421875 C 1639.691406 1388.421875 1697.78125 1452.929688 1697.78125 1532.5 Z M 1701.070312 1532.5 C 1701.070312 1450.898438 1641.511719 1384.761719 1568.039062 1384.761719 C 1494.570312 1384.761719 1435.011719 1450.898438 1435.011719 1532.5 C 1435.011719 1614.101562 1494.570312 1680.238281 1568.039062 1680.238281 C 1641.511719 1680.238281 1701.070312 1614.101562 1701.070312 1532.5 "/>
<path fill-rule="evenodd" fill="rgb(66.992188%, 66.992188%, 66.992188%)" fill-opacity="1" d="M 1699.96875 1532.5 C 1699.96875 1613.421875 1640.898438 1679.019531 1568.039062 1679.019531 C 1495.171875 1679.019531 1436.109375 1613.421875 1436.109375 1532.5 C 1436.109375 1451.578125 1495.171875 1385.980469 1568.039062 1385.980469 C 1640.898438 1385.980469 1699.96875 1451.578125 1699.96875 1532.5 Z M 1703.269531 1532.5 C 1703.269531 1449.558594 1642.730469 1382.320312 1568.039062 1382.320312 C 1493.351562 1382.320312 1432.808594 1449.558594 1432.808594 1532.5 C 1432.808594 1615.449219 1493.351562 1682.691406 1568.039062 1682.691406 C 1642.730469 1682.691406 1703.269531 1615.449219 1703.269531 1532.5 "/>
<path fill-rule="evenodd" fill="rgb(66.601562%, 66.601562%, 66.601562%)" fill-opacity="1" d="M 1702.171875 1532.5 C 1702.171875 1614.769531 1642.121094 1681.46875 1568.039062 1681.46875 C 1493.960938 1681.46875 1433.910156 1614.769531 1433.910156 1532.5 C 1433.910156 1450.230469 1493.960938 1383.539062 1568.039062 1383.539062 C 1642.121094 1383.539062 1702.171875 1450.230469 1702.171875 1532.5 Z M 1705.46875 1532.5 C 1705.46875 1448.210938 1643.941406 1379.871094 1568.039062 1379.871094 C 1492.140625 1379.871094 1430.609375 1448.210938 1430.609375 1532.5 C 1430.609375 1616.800781 1492.140625 1685.128906 1568.039062 1685.128906 C 1643.941406 1685.128906 1705.46875 1616.800781 1705.46875 1532.5 "/>
<path fill-rule="evenodd" fill="rgb(65.818787%, 65.818787%, 65.818787%)" fill-opacity="1" d="M 1704.371094 1532.5 C 1704.371094 1616.121094 1643.328125 1683.910156 1568.039062 1683.910156 C 1492.75 1683.910156 1431.710938 1616.121094 1431.710938 1532.5 C 1431.710938 1448.878906 1492.75 1381.101562 1568.039062 1381.101562 C 1643.328125 1381.101562 1704.371094 1448.878906 1704.371094 1532.5 Z M 1707.671875 1532.5 C 1707.671875 1446.859375 1645.160156 1377.429688 1568.039062 1377.429688 C 1490.929688 1377.429688 1428.410156 1446.859375 1428.410156 1532.5 C 1428.410156 1618.140625 1490.929688 1687.570312 1568.039062 1687.570312 C 1645.160156 1687.570312 1707.671875 1618.140625 1707.671875 1532.5 "/>
<path fill-rule="evenodd" fill="rgb(65.429688%, 65.429688%, 65.429688%)" fill-opacity="1" d="M 1706.570312 1532.5 C 1706.570312 1617.46875 1644.550781 1686.351562 1568.039062 1686.351562 C 1491.53125 1686.351562 1429.511719 1617.46875 1429.511719 1532.5 C 1429.511719 1447.53125 1491.53125 1378.648438 1568.039062 1378.648438 C 1644.550781 1378.648438 1706.570312 1447.53125 1706.570312 1532.5 Z M 1709.871094 1532.5 C 1709.871094 1445.511719 1646.371094 1374.988281 1568.039062 1374.988281 C 1489.710938 1374.988281 1426.210938 1445.511719 1426.210938 1532.5 C 1426.210938 1619.488281 1489.710938 1690.011719 1568.039062 1690.011719 C 1646.371094 1690.011719 1709.871094 1619.488281 1709.871094 1532.5 "/>
<path fill-rule="evenodd" fill="rgb(64.646912%, 64.646912%, 64.646912%)" fill-opacity="1" d="M 1708.769531 1532.5 C 1708.769531 1618.820312 1645.761719 1688.789062 1568.039062 1688.789062 C 1490.320312 1688.789062 1427.308594 1618.820312 1427.308594 1532.5 C 1427.308594 1446.191406 1490.320312 1376.210938 1568.039062 1376.210938 C 1645.761719 1376.210938 1708.769531 1446.191406 1708.769531 1532.5 Z M 1712.070312 1532.5 C 1712.070312 1444.160156 1647.578125 1372.550781 1568.039062 1372.550781 C 1488.5 1372.550781 1424.011719 1444.160156 1424.011719 1532.5 C 1424.011719 1620.839844 1488.5 1692.449219 1568.039062 1692.449219 C 1647.578125 1692.449219 1712.070312 1620.839844 1712.070312 1532.5 "/>
<path fill-rule="evenodd" fill="rgb(64.256287%, 64.256287%, 64.256287%)" fill-opacity="1" d="M 1710.96875 1532.5 C 1710.96875 1620.171875 1646.980469 1691.230469 1568.039062 1691.230469 C 1489.101562 1691.230469 1425.109375 1620.171875 1425.109375 1532.5 C 1425.109375 1444.828125 1489.101562 1373.769531 1568.039062 1373.769531 C 1646.980469 1373.769531 1710.96875 1444.828125 1710.96875 1532.5 Z M 1714.269531 1532.5 C 1714.269531 1442.808594 1648.800781 1370.109375 1568.039062 1370.109375 C 1487.28125 1370.109375 1421.808594 1442.808594 1421.808594 1532.5 C 1421.808594 1622.191406 1487.28125 1694.898438 1568.039062 1694.898438 C 1648.800781 1694.898438 1714.269531 1622.191406 1714.269531 1532.5 "/>
<path fill-rule="evenodd" fill="rgb(63.476562%, 63.476562%, 63.476562%)" fill-opacity="1" d="M 1713.171875 1532.5 C 1713.171875 1621.511719 1648.191406 1693.671875 1568.039062 1693.671875 C 1487.890625 1693.671875 1422.910156 1621.511719 1422.910156 1532.5 C 1422.910156 1443.488281 1487.890625 1371.328125 1568.039062 1371.328125 C 1648.191406 1371.328125 1713.171875 1443.488281 1713.171875 1532.5 Z M 1716.46875 1532.5 C 1716.46875 1441.460938 1650.011719 1367.660156 1568.039062 1367.660156 C 1486.070312 1367.660156 1419.609375 1441.460938 1419.609375 1532.5 C 1419.609375 1623.539062 1486.070312 1697.339844 1568.039062 1697.339844 C 1650.011719 1697.339844 1716.46875 1623.539062 1716.46875 1532.5 "/>
<path fill-rule="evenodd" fill="rgb(63.084412%, 63.084412%, 63.084412%)" fill-opacity="1" d="M 1715.371094 1532.5 C 1715.371094 1622.859375 1649.410156 1696.121094 1568.039062 1696.121094 C 1486.671875 1696.121094 1420.710938 1622.859375 1420.710938 1532.5 C 1420.710938 1442.140625 1486.671875 1368.890625 1568.039062 1368.890625 C 1649.410156 1368.890625 1715.371094 1442.140625 1715.371094 1532.5 Z M 1718.660156 1532.5 C 1718.660156 1440.121094 1651.230469 1365.21875 1568.039062 1365.21875 C 1484.851562 1365.21875 1417.421875 1440.121094 1417.421875 1532.5 C 1417.421875 1624.890625 1484.851562 1699.78125 1568.039062 1699.78125 C 1651.230469 1699.78125 1718.660156 1624.890625 1718.660156 1532.5 "/>
<path fill-rule="evenodd" fill="rgb(62.693787%, 62.693787%, 62.693787%)" fill-opacity="1" d="M 1717.558594 1532.5 C 1717.558594 1624.210938 1650.621094 1698.558594 1568.039062 1698.558594 C 1485.460938 1698.558594 1418.519531 1624.210938 1418.519531 1532.5 C 1418.519531 1440.789062 1485.460938 1366.441406 1568.039062 1366.441406 C 1650.621094 1366.441406 1717.558594 1440.789062 1717.558594 1532.5 Z M 1720.859375 1532.5 C 1720.859375 1438.769531 1652.441406 1362.78125 1568.039062 1362.78125 C 1483.640625 1362.78125 1415.21875 1438.769531 1415.21875 1532.5 C 1415.21875 1626.238281 1483.640625 1702.21875 1568.039062 1702.21875 C 1652.441406 1702.21875 1720.859375 1626.238281 1720.859375 1532.5 "/>
<path fill-rule="evenodd" fill="rgb(61.914062%, 61.914062%, 61.914062%)" fill-opacity="1" d="M 1719.761719 1532.5 C 1719.761719 1625.558594 1651.828125 1701 1568.039062 1701 C 1484.25 1701 1416.320312 1625.558594 1416.320312 1532.5 C 1416.320312 1439.441406 1484.25 1364 1568.039062 1364 C 1651.828125 1364 1719.761719 1439.441406 1719.761719 1532.5 Z M 1723.058594 1532.5 C 1723.058594 1437.421875 1653.660156 1360.339844 1568.039062 1360.339844 C 1482.421875 1360.339844 1413.019531 1437.421875 1413.019531 1532.5 C 1413.019531 1627.578125 1482.421875 1704.660156 1568.039062 1704.660156 C 1653.660156 1704.660156 1723.058594 1627.578125 1723.058594 1532.5 "/>
<path fill-rule="evenodd" fill="rgb(61.521912%, 61.521912%, 61.521912%)" fill-opacity="1" d="M 1721.960938 1532.5 C 1721.960938 1626.910156 1653.050781 1703.441406 1568.039062 1703.441406 C 1483.03125 1703.441406 1414.121094 1626.910156 1414.121094 1532.5 C 1414.121094 1438.089844 1483.03125 1361.558594 1568.039062 1361.558594 C 1653.050781 1361.558594 1721.960938 1438.089844 1721.960938 1532.5 Z M 1725.261719 1532.5 C 1725.261719 1436.070312 1654.871094 1357.898438 1568.039062 1357.898438 C 1481.210938 1357.898438 1410.820312 1436.070312 1410.820312 1532.5 C 1410.820312 1628.929688 1481.210938 1707.109375 1568.039062 1707.109375 C 1654.871094 1707.109375 1725.261719 1628.929688 1725.261719 1532.5 "/>
<path fill-rule="evenodd" fill="rgb(60.742188%, 60.742188%, 60.742188%)" fill-opacity="1" d="M 1724.160156 1532.5 C 1724.160156 1628.261719 1654.261719 1705.878906 1568.039062 1705.878906 C 1481.820312 1705.878906 1411.921875 1628.261719 1411.921875 1532.5 C 1411.921875 1436.738281 1481.820312 1359.121094 1568.039062 1359.121094 C 1654.261719 1359.121094 1724.160156 1436.738281 1724.160156 1532.5 Z M 1727.460938 1532.5 C 1727.460938 1434.71875 1656.078125 1355.449219 1568.039062 1355.449219 C 1479.988281 1355.449219 1408.621094 1434.71875 1408.621094 1532.5 C 1408.621094 1630.28125 1479.988281 1709.550781 1568.039062 1709.550781 C 1656.078125 1709.550781 1727.460938 1630.28125 1727.460938 1532.5 "/>
<path fill-rule="evenodd" fill="rgb(60.351562%, 60.351562%, 60.351562%)" fill-opacity="1" d="M 1726.359375 1532.5 C 1726.359375 1629.609375 1655.480469 1708.328125 1568.039062 1708.328125 C 1480.601562 1708.328125 1409.71875 1629.609375 1409.71875 1532.5 C 1409.71875 1435.390625 1480.601562 1356.671875 1568.039062 1356.671875 C 1655.480469 1356.671875 1726.359375 1435.390625 1726.359375 1532.5 Z M 1729.660156 1532.5 C 1729.660156 1433.371094 1657.300781 1353.011719 1568.039062 1353.011719 C 1478.78125 1353.011719 1406.421875 1433.371094 1406.421875 1532.5 C 1406.421875 1631.628906 1478.78125 1711.988281 1568.039062 1711.988281 C 1657.300781 1711.988281 1729.660156 1631.628906 1729.660156 1532.5 "/>
<path fill-rule="evenodd" fill="rgb(59.959412%, 59.959412%, 59.959412%)" fill-opacity="1" d="M 1728.558594 1532.5 C 1728.558594 1630.960938 1656.691406 1710.769531 1568.039062 1710.769531 C 1479.390625 1710.769531 1407.519531 1630.960938 1407.519531 1532.5 C 1407.519531 1434.050781 1479.390625 1354.230469 1568.039062 1354.230469 C 1656.691406 1354.230469 1728.558594 1434.050781 1728.558594 1532.5 Z M 1731.859375 1532.5 C 1731.859375 1432.019531 1658.511719 1350.570312 1568.039062 1350.570312 C 1477.570312 1350.570312 1404.21875 1432.019531 1404.21875 1532.5 C 1404.21875 1632.980469 1477.570312 1714.429688 1568.039062 1714.429688 C 1658.511719 1714.429688 1731.859375 1632.980469 1731.859375 1532.5 "/>
<path fill-rule="evenodd" fill="rgb(59.179688%, 59.179688%, 59.179688%)" fill-opacity="1" d="M 1730.761719 1532.5 C 1730.761719 1632.300781 1657.910156 1713.210938 1568.039062 1713.210938 C 1478.171875 1713.210938 1405.320312 1632.300781 1405.320312 1532.5 C 1405.320312 1432.699219 1478.171875 1351.789062 1568.039062 1351.789062 C 1657.910156 1351.789062 1730.761719 1432.699219 1730.761719 1532.5 Z M 1734.058594 1532.5 C 1734.058594 1430.671875 1659.730469 1348.128906 1568.039062 1348.128906 C 1476.351562 1348.128906 1402.019531 1430.671875 1402.019531 1532.5 C 1402.019531 1634.328125 1476.351562 1716.871094 1568.039062 1716.871094 C 1659.730469 1716.871094 1734.058594 1634.328125 1734.058594 1532.5 "/>
<path fill-rule="evenodd" fill="rgb(58.789062%, 58.789062%, 58.789062%)" fill-opacity="1" d="M 1732.960938 1532.5 C 1732.960938 1633.648438 1659.121094 1715.648438 1568.039062 1715.648438 C 1476.960938 1715.648438 1403.121094 1633.648438 1403.121094 1532.5 C 1403.121094 1431.351562 1476.960938 1349.351562 1568.039062 1349.351562 C 1659.121094 1349.351562 1732.960938 1431.351562 1732.960938 1532.5 Z M 1736.261719 1532.5 C 1736.261719 1429.320312 1660.941406 1345.691406 1568.039062 1345.691406 C 1475.140625 1345.691406 1399.820312 1429.320312 1399.820312 1532.5 C 1399.820312 1635.679688 1475.140625 1719.320312 1568.039062 1719.320312 C 1660.941406 1719.320312 1736.261719 1635.679688 1736.261719 1532.5 "/>
<path fill-rule="evenodd" fill="rgb(58.006287%, 58.006287%, 58.006287%)" fill-opacity="1" d="M 1735.160156 1532.5 C 1735.160156 1635 1660.328125 1718.089844 1568.039062 1718.089844 C 1475.738281 1718.089844 1400.921875 1635 1400.921875 1532.5 C 1400.921875 1430 1475.738281 1346.910156 1568.039062 1346.910156 C 1660.328125 1346.910156 1735.160156 1430 1735.160156 1532.5 Z M 1738.449219 1532.5 C 1738.449219 1427.980469 1662.160156 1343.238281 1568.039062 1343.238281 C 1473.921875 1343.238281 1397.628906 1427.980469 1397.628906 1532.5 C 1397.628906 1637.019531 1473.921875 1721.761719 1568.039062 1721.761719 C 1662.160156 1721.761719 1738.449219 1637.019531 1738.449219 1532.5 "/>
<path fill-rule="evenodd" fill="rgb(57.617188%, 57.617188%, 57.617188%)" fill-opacity="1" d="M 1737.351562 1532.5 C 1737.351562 1636.351562 1661.550781 1720.539062 1568.039062 1720.539062 C 1474.53125 1720.539062 1398.730469 1636.351562 1398.730469 1532.5 C 1398.730469 1428.648438 1474.53125 1344.460938 1568.039062 1344.460938 C 1661.550781 1344.460938 1737.351562 1428.648438 1737.351562 1532.5 Z M 1740.648438 1532.5 C 1740.648438 1426.628906 1663.371094 1340.800781 1568.039062 1340.800781 C 1472.710938 1340.800781 1395.429688 1426.628906 1395.429688 1532.5 C 1395.429688 1638.371094 1472.710938 1724.199219 1568.039062 1724.199219 C 1663.371094 1724.199219 1740.648438 1638.371094 1740.648438 1532.5 "/>
<path fill-rule="evenodd" fill="rgb(57.226562%, 57.226562%, 57.226562%)" fill-opacity="1" d="M 1739.550781 1532.5 C 1739.550781 1637.699219 1662.761719 1722.980469 1568.039062 1722.980469 C 1473.320312 1722.980469 1396.53125 1637.699219 1396.53125 1532.5 C 1396.53125 1427.300781 1473.320312 1342.019531 1568.039062 1342.019531 C 1662.761719 1342.019531 1739.550781 1427.300781 1739.550781 1532.5 Z M 1742.851562 1532.5 C 1742.851562 1425.28125 1664.589844 1338.359375 1568.039062 1338.359375 C 1471.488281 1338.359375 1393.230469 1425.28125 1393.230469 1532.5 C 1393.230469 1639.71875 1471.488281 1726.640625 1568.039062 1726.640625 C 1664.589844 1726.640625 1742.851562 1639.71875 1742.851562 1532.5 "/>
<path fill-rule="evenodd" fill="rgb(56.443787%, 56.443787%, 56.443787%)" fill-opacity="1" d="M 1741.75 1532.5 C 1741.75 1639.050781 1663.980469 1725.421875 1568.039062 1725.421875 C 1472.101562 1725.421875 1394.328125 1639.050781 1394.328125 1532.5 C 1394.328125 1425.949219 1472.101562 1339.578125 1568.039062 1339.578125 C 1663.980469 1339.578125 1741.75 1425.949219 1741.75 1532.5 Z M 1745.050781 1532.5 C 1745.050781 1423.929688 1665.800781 1335.921875 1568.039062 1335.921875 C 1470.28125 1335.921875 1391.03125 1423.929688 1391.03125 1532.5 C 1391.03125 1641.070312 1470.28125 1729.078125 1568.039062 1729.078125 C 1665.800781 1729.078125 1745.050781 1641.070312 1745.050781 1532.5 "/>
<path fill-rule="evenodd" fill="rgb(56.054688%, 56.054688%, 56.054688%)" fill-opacity="1" d="M 1743.949219 1532.5 C 1743.949219 1640.398438 1665.191406 1727.859375 1568.039062 1727.859375 C 1470.890625 1727.859375 1392.128906 1640.398438 1392.128906 1532.5 C 1392.128906 1424.609375 1470.890625 1337.140625 1568.039062 1337.140625 C 1665.191406 1337.140625 1743.949219 1424.609375 1743.949219 1532.5 Z M 1747.25 1532.5 C 1747.25 1422.578125 1667.011719 1333.480469 1568.039062 1333.480469 C 1469.070312 1333.480469 1388.828125 1422.578125 1388.828125 1532.5 C 1388.828125 1642.421875 1469.070312 1731.53125 1568.039062 1731.53125 C 1667.011719 1731.53125 1747.25 1642.421875 1747.25 1532.5 "/>
<path fill-rule="evenodd" fill="rgb(55.271912%, 55.271912%, 55.271912%)" fill-opacity="1" d="M 1746.148438 1532.5 C 1746.148438 1641.75 1666.410156 1730.300781 1568.039062 1730.300781 C 1469.671875 1730.300781 1389.929688 1641.75 1389.929688 1532.5 C 1389.929688 1423.261719 1469.671875 1334.699219 1568.039062 1334.699219 C 1666.410156 1334.699219 1746.148438 1423.261719 1746.148438 1532.5 Z M 1749.449219 1532.5 C 1749.449219 1421.230469 1668.230469 1331.03125 1568.039062 1331.03125 C 1467.851562 1331.03125 1386.628906 1421.230469 1386.628906 1532.5 C 1386.628906 1643.769531 1467.851562 1733.96875 1568.039062 1733.96875 C 1668.230469 1733.96875 1749.449219 1643.769531 1749.449219 1532.5 "/>
<path fill-rule="evenodd" fill="rgb(54.881287%, 54.881287%, 54.881287%)" fill-opacity="1" d="M 1748.351562 1532.5 C 1748.351562 1643.089844 1667.621094 1732.75 1568.039062 1732.75 C 1468.460938 1732.75 1387.730469 1643.089844 1387.730469 1532.5 C 1387.730469 1421.910156 1468.460938 1332.25 1568.039062 1332.25 C 1667.621094 1332.25 1748.351562 1421.910156 1748.351562 1532.5 Z M 1751.648438 1532.5 C 1751.648438 1419.878906 1669.441406 1328.589844 1568.039062 1328.589844 C 1466.640625 1328.589844 1384.429688 1419.878906 1384.429688 1532.5 C 1384.429688 1645.121094 1466.640625 1736.410156 1568.039062 1736.410156 C 1669.441406 1736.410156 1751.648438 1645.121094 1751.648438 1532.5 "/>
<path fill-rule="evenodd" fill="rgb(54.492188%, 54.492188%, 54.492188%)" fill-opacity="1" d="M 1750.550781 1532.5 C 1750.550781 1644.441406 1668.839844 1735.191406 1568.039062 1735.191406 C 1467.238281 1735.191406 1385.53125 1644.441406 1385.53125 1532.5 C 1385.53125 1420.558594 1467.238281 1329.808594 1568.039062 1329.808594 C 1668.839844 1329.808594 1750.550781 1420.558594 1750.550781 1532.5 Z M 1753.851562 1532.5 C 1753.851562 1418.539062 1670.660156 1326.148438 1568.039062 1326.148438 C 1465.421875 1326.148438 1382.230469 1418.539062 1382.230469 1532.5 C 1382.230469 1646.46875 1465.421875 1738.851562 1568.039062 1738.851562 C 1670.660156 1738.851562 1753.851562 1646.46875 1753.851562 1532.5 "/>
<path fill-rule="evenodd" fill="rgb(53.709412%, 53.709412%, 53.709412%)" fill-opacity="1" d="M 1752.75 1532.5 C 1752.75 1645.789062 1670.050781 1737.628906 1568.039062 1737.628906 C 1466.03125 1737.628906 1383.328125 1645.789062 1383.328125 1532.5 C 1383.328125 1419.210938 1466.03125 1327.371094 1568.039062 1327.371094 C 1670.050781 1327.371094 1752.75 1419.210938 1752.75 1532.5 Z M 1756.039062 1532.5 C 1756.039062 1417.191406 1671.871094 1323.710938 1568.039062 1323.710938 C 1464.210938 1323.710938 1380.039062 1417.191406 1380.039062 1532.5 C 1380.039062 1647.808594 1464.210938 1741.289062 1568.039062 1741.289062 C 1671.871094 1741.289062 1756.039062 1647.808594 1756.039062 1532.5 "/>
<path fill-rule="evenodd" fill="rgb(53.318787%, 53.318787%, 53.318787%)" fill-opacity="1" d="M 1754.949219 1532.5 C 1754.949219 1647.140625 1671.269531 1740.070312 1568.039062 1740.070312 C 1464.808594 1740.070312 1381.128906 1647.140625 1381.128906 1532.5 C 1381.128906 1417.859375 1464.808594 1324.929688 1568.039062 1324.929688 C 1671.269531 1324.929688 1754.949219 1417.859375 1754.949219 1532.5 Z M 1758.238281 1532.5 C 1758.238281 1415.839844 1673.089844 1321.269531 1568.039062 1321.269531 C 1462.988281 1321.269531 1377.839844 1415.839844 1377.839844 1532.5 C 1377.839844 1649.160156 1462.988281 1743.738281 1568.039062 1743.738281 C 1673.089844 1743.738281 1758.238281 1649.160156 1758.238281 1532.5 "/>
<path fill-rule="evenodd" fill="rgb(52.539062%, 52.539062%, 52.539062%)" fill-opacity="1" d="M 1757.140625 1532.5 C 1757.140625 1648.488281 1672.480469 1742.519531 1568.039062 1742.519531 C 1463.601562 1742.519531 1378.941406 1648.488281 1378.941406 1532.5 C 1378.941406 1416.511719 1463.601562 1322.488281 1568.039062 1322.488281 C 1672.480469 1322.488281 1757.140625 1416.511719 1757.140625 1532.5 Z M 1760.441406 1532.5 C 1760.441406 1414.488281 1674.300781 1318.820312 1568.039062 1318.820312 C 1461.78125 1318.820312 1375.640625 1414.488281 1375.640625 1532.5 C 1375.640625 1650.511719 1461.78125 1746.179688 1568.039062 1746.179688 C 1674.300781 1746.179688 1760.441406 1650.511719 1760.441406 1532.5 "/>
<path fill-rule="evenodd" fill="rgb(52.146912%, 52.146912%, 52.146912%)" fill-opacity="1" d="M 1759.339844 1532.5 C 1759.339844 1649.839844 1673.691406 1744.960938 1568.039062 1744.960938 C 1462.390625 1744.960938 1376.738281 1649.839844 1376.738281 1532.5 C 1376.738281 1415.160156 1462.390625 1320.039062 1568.039062 1320.039062 C 1673.691406 1320.039062 1759.339844 1415.160156 1759.339844 1532.5 Z M 1762.640625 1532.5 C 1762.640625 1413.140625 1675.511719 1316.378906 1568.039062 1316.378906 C 1460.558594 1316.378906 1373.441406 1413.140625 1373.441406 1532.5 C 1373.441406 1651.859375 1460.558594 1748.621094 1568.039062 1748.621094 C 1675.511719 1748.621094 1762.640625 1651.859375 1762.640625 1532.5 "/>
<path fill-rule="evenodd" fill="rgb(51.756287%, 51.756287%, 51.756287%)" fill-opacity="1" d="M 1761.539062 1532.5 C 1761.539062 1651.191406 1674.910156 1747.398438 1568.039062 1747.398438 C 1461.171875 1747.398438 1374.539062 1651.191406 1374.539062 1532.5 C 1374.539062 1413.820312 1461.171875 1317.601562 1568.039062 1317.601562 C 1674.910156 1317.601562 1761.539062 1413.820312 1761.539062 1532.5 Z M 1764.839844 1532.5 C 1764.839844 1411.789062 1676.730469 1313.941406 1568.039062 1313.941406 C 1459.351562 1313.941406 1371.238281 1411.789062 1371.238281 1532.5 C 1371.238281 1653.210938 1459.351562 1751.058594 1568.039062 1751.058594 C 1676.730469 1751.058594 1764.839844 1653.210938 1764.839844 1532.5 "/>
<path fill-rule="evenodd" fill="rgb(50.976562%, 50.976562%, 50.976562%)" fill-opacity="1" d="M 1763.738281 1532.5 C 1763.738281 1652.539062 1676.121094 1749.839844 1568.039062 1749.839844 C 1459.960938 1749.839844 1372.339844 1652.539062 1372.339844 1532.5 C 1372.339844 1412.46875 1459.960938 1315.160156 1568.039062 1315.160156 C 1676.121094 1315.160156 1763.738281 1412.46875 1763.738281 1532.5 Z M 1767.039062 1532.5 C 1767.039062 1410.441406 1677.941406 1311.5 1568.039062 1311.5 C 1458.140625 1311.5 1369.039062 1410.441406 1369.039062 1532.5 C 1369.039062 1654.558594 1458.140625 1753.5 1568.039062 1753.5 C 1677.941406 1753.5 1767.039062 1654.558594 1767.039062 1532.5 "/>
<path fill-rule="evenodd" fill="rgb(50.584412%, 50.584412%, 50.584412%)" fill-opacity="1" d="M 1765.941406 1532.5 C 1765.941406 1653.878906 1677.339844 1752.28125 1568.039062 1752.28125 C 1458.738281 1752.28125 1370.140625 1653.878906 1370.140625 1532.5 C 1370.140625 1411.121094 1458.738281 1312.71875 1568.039062 1312.71875 C 1677.339844 1312.71875 1765.941406 1411.121094 1765.941406 1532.5 Z M 1769.238281 1532.5 C 1769.238281 1409.101562 1679.160156 1309.058594 1568.039062 1309.058594 C 1456.921875 1309.058594 1366.839844 1409.101562 1366.839844 1532.5 C 1366.839844 1655.910156 1456.921875 1755.949219 1568.039062 1755.949219 C 1679.160156 1755.949219 1769.238281 1655.910156 1769.238281 1532.5 "/>
<path fill-rule="evenodd" fill="rgb(49.804688%, 49.804688%, 49.804688%)" fill-opacity="1" d="M 1768.140625 1532.5 C 1768.140625 1655.230469 1678.550781 1754.730469 1568.039062 1754.730469 C 1457.53125 1754.730469 1367.941406 1655.230469 1367.941406 1532.5 C 1367.941406 1409.769531 1457.53125 1310.28125 1568.039062 1310.28125 C 1678.550781 1310.28125 1768.140625 1409.769531 1768.140625 1532.5 Z M 1771.441406 1532.5 C 1771.441406 1407.75 1680.371094 1306.609375 1568.039062 1306.609375 C 1455.710938 1306.609375 1364.640625 1407.75 1364.640625 1532.5 C 1364.640625 1657.25 1455.710938 1758.390625 1568.039062 1758.390625 C 1680.371094 1758.390625 1771.441406 1657.25 1771.441406 1532.5 "/>
<path fill-rule="evenodd" fill="rgb(49.414062%, 49.414062%, 49.414062%)" fill-opacity="1" d="M 1770.339844 1532.5 C 1770.339844 1656.578125 1679.769531 1757.171875 1568.039062 1757.171875 C 1456.308594 1757.171875 1365.738281 1656.578125 1365.738281 1532.5 C 1365.738281 1408.421875 1456.308594 1307.839844 1568.039062 1307.839844 C 1679.769531 1307.839844 1770.339844 1408.421875 1770.339844 1532.5 Z M 1773.640625 1532.5 C 1773.640625 1406.398438 1681.589844 1304.171875 1568.039062 1304.171875 C 1454.488281 1304.171875 1362.441406 1406.398438 1362.441406 1532.5 C 1362.441406 1658.601562 1454.488281 1760.828125 1568.039062 1760.828125 C 1681.589844 1760.828125 1773.640625 1658.601562 1773.640625 1532.5 "/>
<path fill-rule="evenodd" fill="rgb(49.021912%, 49.021912%, 49.021912%)" fill-opacity="1" d="M 1772.539062 1532.5 C 1772.539062 1657.929688 1680.980469 1759.609375 1568.039062 1759.609375 C 1455.101562 1759.609375 1363.539062 1657.929688 1363.539062 1532.5 C 1363.539062 1407.070312 1455.101562 1305.390625 1568.039062 1305.390625 C 1680.980469 1305.390625 1772.539062 1407.070312 1772.539062 1532.5 Z M 1775.839844 1532.5 C 1775.839844 1405.050781 1682.800781 1301.730469 1568.039062 1301.730469 C 1453.28125 1301.730469 1360.238281 1405.050781 1360.238281 1532.5 C 1360.238281 1659.949219 1453.28125 1763.269531 1568.039062 1763.269531 C 1682.800781 1763.269531 1775.839844 1659.949219 1775.839844 1532.5 "/>
<path fill-rule="evenodd" fill="rgb(48.242188%, 48.242188%, 48.242188%)" fill-opacity="1" d="M 1774.738281 1532.5 C 1774.738281 1659.28125 1682.199219 1762.050781 1568.039062 1762.050781 C 1453.878906 1762.050781 1361.339844 1659.28125 1361.339844 1532.5 C 1361.339844 1405.71875 1453.878906 1302.949219 1568.039062 1302.949219 C 1682.199219 1302.949219 1774.738281 1405.71875 1774.738281 1532.5 Z M 1778.03125 1532.5 C 1778.03125 1403.699219 1684.019531 1299.289062 1568.039062 1299.289062 C 1452.058594 1299.289062 1358.050781 1403.699219 1358.050781 1532.5 C 1358.050781 1661.300781 1452.058594 1765.71875 1568.039062 1765.71875 C 1684.019531 1765.71875 1778.03125 1661.300781 1778.03125 1532.5 "/>
<path fill-rule="evenodd" fill="rgb(47.851562%, 47.851562%, 47.851562%)" fill-opacity="1" d="M 1776.929688 1532.5 C 1776.929688 1660.628906 1683.410156 1764.488281 1568.039062 1764.488281 C 1452.671875 1764.488281 1359.148438 1660.628906 1359.148438 1532.5 C 1359.148438 1404.371094 1452.671875 1300.511719 1568.039062 1300.511719 C 1683.410156 1300.511719 1776.929688 1404.371094 1776.929688 1532.5 Z M 1780.230469 1532.5 C 1780.230469 1402.351562 1685.230469 1296.851562 1568.039062 1296.851562 C 1450.851562 1296.851562 1355.851562 1402.351562 1355.851562 1532.5 C 1355.851562 1662.648438 1450.851562 1768.160156 1568.039062 1768.160156 C 1685.230469 1768.160156 1780.230469 1662.648438 1780.230469 1532.5 "/>
<path fill-rule="evenodd" fill="rgb(47.068787%, 47.068787%, 47.068787%)" fill-opacity="1" d="M 1779.128906 1532.5 C 1779.128906 1661.980469 1684.621094 1766.941406 1568.039062 1766.941406 C 1451.460938 1766.941406 1356.949219 1661.980469 1356.949219 1532.5 C 1356.949219 1403.03125 1451.460938 1298.070312 1568.039062 1298.070312 C 1684.621094 1298.070312 1779.128906 1403.03125 1779.128906 1532.5 Z M 1782.429688 1532.5 C 1782.429688 1401 1686.441406 1294.398438 1568.039062 1294.398438 C 1449.640625 1294.398438 1353.648438 1401 1353.648438 1532.5 C 1353.648438 1664 1449.640625 1770.601562 1568.039062 1770.601562 C 1686.441406 1770.601562 1782.429688 1664 1782.429688 1532.5 "/>
<path fill-rule="evenodd" fill="rgb(46.679688%, 46.679688%, 46.679688%)" fill-opacity="1" d="M 1781.328125 1532.5 C 1781.328125 1663.320312 1685.839844 1769.378906 1568.039062 1769.378906 C 1450.238281 1769.378906 1354.75 1663.320312 1354.75 1532.5 C 1354.75 1401.679688 1450.238281 1295.621094 1568.039062 1295.621094 C 1685.839844 1295.621094 1781.328125 1401.679688 1781.328125 1532.5 Z M 1784.628906 1532.5 C 1784.628906 1399.648438 1687.660156 1291.960938 1568.039062 1291.960938 C 1448.421875 1291.960938 1351.449219 1399.648438 1351.449219 1532.5 C 1351.449219 1665.351562 1448.421875 1773.039062 1568.039062 1773.039062 C 1687.660156 1773.039062 1784.628906 1665.351562 1784.628906 1532.5 "/>
<path fill-rule="evenodd" fill="rgb(46.263123%, 46.263123%, 46.263123%)" fill-opacity="1" d="M 1783.53125 1532.5 C 1783.53125 1664.671875 1687.050781 1771.820312 1568.039062 1771.820312 C 1449.03125 1771.820312 1352.550781 1664.671875 1352.550781 1532.5 C 1352.550781 1400.328125 1449.03125 1293.179688 1568.039062 1293.179688 C 1687.050781 1293.179688 1783.53125 1400.328125 1783.53125 1532.5 Z M 1786.828125 1532.5 C 1786.828125 1398.308594 1688.871094 1289.519531 1568.039062 1289.519531 C 1447.210938 1289.519531 1349.25 1398.308594 1349.25 1532.5 C 1349.25 1666.699219 1447.210938 1775.480469 1568.039062 1775.480469 C 1688.871094 1775.480469 1786.828125 1666.699219 1786.828125 1532.5 "/>
<path fill-rule="evenodd" fill="rgb(45.483398%, 45.483398%, 45.483398%)" fill-opacity="1" d="M 1785.730469 1532.5 C 1785.730469 1666.019531 1688.269531 1774.261719 1568.039062 1774.261719 C 1447.808594 1774.261719 1350.351562 1666.019531 1350.351562 1532.5 C 1350.351562 1398.980469 1447.808594 1290.738281 1568.039062 1290.738281 C 1688.269531 1290.738281 1785.730469 1398.980469 1785.730469 1532.5 Z M 1789.03125 1532.5 C 1789.03125 1396.960938 1690.089844 1287.078125 1568.039062 1287.078125 C 1445.988281 1287.078125 1347.050781 1396.960938 1347.050781 1532.5 C 1347.050781 1668.039062 1445.988281 1777.929688 1568.039062 1777.929688 C 1690.089844 1777.929688 1789.03125 1668.039062 1789.03125 1532.5 "/>
<path fill-rule="evenodd" fill="rgb(45.092773%, 45.092773%, 45.092773%)" fill-opacity="1" d="M 1787.929688 1532.5 C 1787.929688 1667.371094 1689.480469 1776.699219 1568.039062 1776.699219 C 1446.601562 1776.699219 1348.148438 1667.371094 1348.148438 1532.5 C 1348.148438 1397.628906 1446.601562 1288.300781 1568.039062 1288.300781 C 1689.480469 1288.300781 1787.929688 1397.628906 1787.929688 1532.5 Z M 1791.230469 1532.5 C 1791.230469 1395.609375 1691.300781 1284.640625 1568.039062 1284.640625 C 1444.78125 1284.640625 1344.851562 1395.609375 1344.851562 1532.5 C 1344.851562 1669.390625 1444.78125 1780.371094 1568.039062 1780.371094 C 1691.300781 1780.371094 1791.230469 1669.390625 1791.230469 1532.5 "/>
<path fill-rule="evenodd" fill="rgb(44.309998%, 44.309998%, 44.309998%)" fill-opacity="1" d="M 1790.128906 1532.5 C 1790.128906 1668.71875 1690.699219 1779.148438 1568.039062 1779.148438 C 1445.378906 1779.148438 1345.949219 1668.71875 1345.949219 1532.5 C 1345.949219 1396.28125 1445.378906 1285.859375 1568.039062 1285.859375 C 1690.699219 1285.859375 1790.128906 1396.28125 1790.128906 1532.5 Z M 1793.429688 1532.5 C 1793.429688 1394.261719 1692.519531 1282.191406 1568.039062 1282.191406 C 1443.558594 1282.191406 1342.648438 1394.261719 1342.648438 1532.5 C 1342.648438 1670.738281 1443.558594 1782.808594 1568.039062 1782.808594 C 1692.519531 1782.808594 1793.429688 1670.738281 1793.429688 1532.5 "/>
<path fill-rule="evenodd" fill="rgb(43.920898%, 43.920898%, 43.920898%)" fill-opacity="1" d="M 1792.328125 1532.5 C 1792.328125 1670.070312 1691.910156 1781.589844 1568.039062 1781.589844 C 1444.171875 1781.589844 1343.75 1670.070312 1343.75 1532.5 C 1343.75 1394.929688 1444.171875 1283.410156 1568.039062 1283.410156 C 1691.910156 1283.410156 1792.328125 1394.929688 1792.328125 1532.5 Z M 1795.621094 1532.5 C 1795.621094 1392.910156 1693.730469 1279.75 1568.039062 1279.75 C 1442.351562 1279.75 1340.460938 1392.910156 1340.460938 1532.5 C 1340.460938 1672.089844 1442.351562 1785.25 1568.039062 1785.25 C 1693.730469 1785.25 1795.621094 1672.089844 1795.621094 1532.5 "/>
<path fill-rule="evenodd" fill="rgb(43.530273%, 43.530273%, 43.530273%)" fill-opacity="1" d="M 1794.53125 1532.5 C 1794.53125 1671.421875 1693.121094 1784.03125 1568.039062 1784.03125 C 1442.960938 1784.03125 1341.550781 1671.421875 1341.550781 1532.5 C 1341.550781 1393.589844 1442.960938 1280.96875 1568.039062 1280.96875 C 1693.121094 1280.96875 1794.53125 1393.589844 1794.53125 1532.5 Z M 1797.820312 1532.5 C 1797.820312 1391.558594 1694.949219 1277.308594 1568.039062 1277.308594 C 1441.128906 1277.308594 1338.261719 1391.558594 1338.261719 1532.5 C 1338.261719 1673.441406 1441.128906 1787.691406 1568.039062 1787.691406 C 1694.949219 1787.691406 1797.820312 1673.441406 1797.820312 1532.5 "/>
<path fill-rule="evenodd" fill="rgb(42.747498%, 42.747498%, 42.747498%)" fill-opacity="1" d="M 1796.71875 1532.5 C 1796.71875 1672.761719 1694.339844 1786.46875 1568.039062 1786.46875 C 1441.738281 1786.46875 1339.359375 1672.761719 1339.359375 1532.5 C 1339.359375 1392.238281 1441.738281 1278.53125 1568.039062 1278.53125 C 1694.339844 1278.53125 1796.71875 1392.238281 1796.71875 1532.5 Z M 1800.019531 1532.5 C 1800.019531 1390.210938 1696.160156 1274.871094 1568.039062 1274.871094 C 1439.921875 1274.871094 1336.058594 1390.210938 1336.058594 1532.5 C 1336.058594 1674.789062 1439.921875 1790.128906 1568.039062 1790.128906 C 1696.160156 1790.128906 1800.019531 1674.789062 1800.019531 1532.5 "/>
<path fill-rule="evenodd" fill="rgb(42.358398%, 42.358398%, 42.358398%)" fill-opacity="1" d="M 1798.921875 1532.5 C 1798.921875 1674.109375 1695.550781 1788.910156 1568.039062 1788.910156 C 1440.53125 1788.910156 1337.160156 1674.109375 1337.160156 1532.5 C 1337.160156 1390.890625 1440.53125 1276.089844 1568.039062 1276.089844 C 1695.550781 1276.089844 1798.921875 1390.890625 1798.921875 1532.5 Z M 1802.21875 1532.5 C 1802.21875 1388.871094 1697.378906 1272.421875 1568.039062 1272.421875 C 1438.699219 1272.421875 1333.859375 1388.871094 1333.859375 1532.5 C 1333.859375 1676.140625 1438.699219 1792.578125 1568.039062 1792.578125 C 1697.378906 1792.578125 1802.21875 1676.140625 1802.21875 1532.5 "/>
<path fill-rule="evenodd" fill="rgb(41.575623%, 41.575623%, 41.575623%)" fill-opacity="1" d="M 1801.121094 1532.5 C 1801.121094 1675.460938 1696.769531 1791.359375 1568.039062 1791.359375 C 1439.308594 1791.359375 1334.960938 1675.460938 1334.960938 1532.5 C 1334.960938 1389.539062 1439.308594 1273.648438 1568.039062 1273.648438 C 1696.769531 1273.648438 1801.121094 1389.539062 1801.121094 1532.5 Z M 1804.421875 1532.5 C 1804.421875 1387.519531 1698.589844 1269.980469 1568.039062 1269.980469 C 1437.488281 1269.980469 1331.660156 1387.519531 1331.660156 1532.5 C 1331.660156 1677.488281 1437.488281 1795.019531 1568.039062 1795.019531 C 1698.589844 1795.019531 1804.421875 1677.488281 1804.421875 1532.5 "/>
<path fill-rule="evenodd" fill="rgb(41.184998%, 41.184998%, 41.184998%)" fill-opacity="1" d="M 1803.320312 1532.5 C 1803.320312 1676.808594 1697.980469 1793.800781 1568.039062 1793.800781 C 1438.101562 1793.800781 1332.761719 1676.808594 1332.761719 1532.5 C 1332.761719 1388.191406 1438.101562 1271.199219 1568.039062 1271.199219 C 1697.980469 1271.199219 1803.320312 1388.191406 1803.320312 1532.5 Z M 1806.621094 1532.5 C 1806.621094 1386.171875 1699.800781 1267.539062 1568.039062 1267.539062 C 1436.28125 1267.539062 1329.460938 1386.171875 1329.460938 1532.5 C 1329.460938 1678.828125 1436.28125 1797.460938 1568.039062 1797.460938 C 1699.800781 1797.460938 1806.621094 1678.828125 1806.621094 1532.5 "/>
<path fill-rule="evenodd" fill="rgb(40.771484%, 40.771484%, 40.771484%)" fill-opacity="1" d="M 1805.519531 1532.5 C 1805.519531 1678.160156 1699.199219 1796.238281 1568.039062 1796.238281 C 1436.878906 1796.238281 1330.558594 1678.160156 1330.558594 1532.5 C 1330.558594 1386.839844 1436.878906 1268.761719 1568.039062 1268.761719 C 1699.199219 1268.761719 1805.519531 1386.839844 1805.519531 1532.5 Z M 1808.820312 1532.5 C 1808.820312 1384.820312 1701.019531 1265.101562 1568.039062 1265.101562 C 1435.058594 1265.101562 1327.261719 1384.820312 1327.261719 1532.5 C 1327.261719 1680.179688 1435.058594 1799.898438 1568.039062 1799.898438 C 1701.019531 1799.898438 1808.820312 1680.179688 1808.820312 1532.5 "/>
<path fill-rule="evenodd" fill="rgb(39.988708%, 39.988708%, 39.988708%)" fill-opacity="1" d="M 1807.71875 1532.5 C 1807.71875 1679.511719 1700.410156 1798.679688 1568.039062 1798.679688 C 1435.671875 1798.679688 1328.359375 1679.511719 1328.359375 1532.5 C 1328.359375 1385.488281 1435.671875 1266.320312 1568.039062 1266.320312 C 1700.410156 1266.320312 1807.71875 1385.488281 1807.71875 1532.5 Z M 1811.019531 1532.5 C 1811.019531 1383.46875 1702.230469 1262.660156 1568.039062 1262.660156 C 1433.851562 1262.660156 1325.058594 1383.46875 1325.058594 1532.5 C 1325.058594 1681.53125 1433.851562 1802.339844 1568.039062 1802.339844 C 1702.230469 1802.339844 1811.019531 1681.53125 1811.019531 1532.5 "/>
<path fill-rule="evenodd" fill="rgb(39.598083%, 39.598083%, 39.598083%)" fill-opacity="1" d="M 1809.921875 1532.5 C 1809.921875 1680.859375 1701.628906 1801.121094 1568.039062 1801.121094 C 1434.449219 1801.121094 1326.160156 1680.859375 1326.160156 1532.5 C 1326.160156 1384.140625 1434.449219 1263.878906 1568.039062 1263.878906 C 1701.628906 1263.878906 1809.921875 1384.140625 1809.921875 1532.5 Z M 1813.21875 1532.5 C 1813.21875 1382.121094 1703.449219 1260.210938 1568.039062 1260.210938 C 1432.628906 1260.210938 1322.859375 1382.121094 1322.859375 1532.5 C 1322.859375 1682.878906 1432.628906 1804.789062 1568.039062 1804.789062 C 1703.449219 1804.789062 1813.21875 1682.878906 1813.21875 1532.5 "/>
<path fill-rule="evenodd" fill="rgb(38.818359%, 38.818359%, 38.818359%)" fill-opacity="1" d="M 1812.121094 1532.5 C 1812.121094 1682.210938 1702.839844 1803.558594 1568.039062 1803.558594 C 1433.238281 1803.558594 1323.960938 1682.210938 1323.960938 1532.5 C 1323.960938 1382.800781 1433.238281 1261.441406 1568.039062 1261.441406 C 1702.839844 1261.441406 1812.121094 1382.800781 1812.121094 1532.5 Z M 1815.410156 1532.5 C 1815.410156 1380.769531 1704.660156 1257.769531 1568.039062 1257.769531 C 1431.421875 1257.769531 1320.671875 1380.769531 1320.671875 1532.5 C 1320.671875 1684.230469 1431.421875 1807.230469 1568.039062 1807.230469 C 1704.660156 1807.230469 1815.410156 1684.230469 1815.410156 1532.5 "/>
<path fill-rule="evenodd" fill="rgb(38.426208%, 38.426208%, 38.426208%)" fill-opacity="1" d="M 1814.308594 1532.5 C 1814.308594 1683.558594 1704.058594 1806.011719 1568.039062 1806.011719 C 1432.03125 1806.011719 1321.769531 1683.558594 1321.769531 1532.5 C 1321.769531 1381.449219 1432.03125 1258.988281 1568.039062 1258.988281 C 1704.058594 1258.988281 1814.308594 1381.449219 1814.308594 1532.5 Z M 1817.609375 1532.5 C 1817.609375 1379.421875 1705.878906 1255.328125 1568.039062 1255.328125 C 1430.210938 1255.328125 1318.46875 1379.421875 1318.46875 1532.5 C 1318.46875 1685.578125 1430.210938 1809.671875 1568.039062 1809.671875 C 1705.878906 1809.671875 1817.609375 1685.578125 1817.609375 1532.5 "/>
<path fill-rule="evenodd" fill="rgb(38.035583%, 38.035583%, 38.035583%)" fill-opacity="1" d="M 1816.519531 1532.5 C 1816.519531 1684.898438 1705.269531 1808.449219 1568.039062 1808.449219 C 1430.808594 1808.449219 1319.558594 1684.898438 1319.558594 1532.5 C 1319.558594 1380.101562 1430.808594 1256.550781 1568.039062 1256.550781 C 1705.269531 1256.550781 1816.519531 1380.101562 1816.519531 1532.5 Z M 1819.808594 1532.5 C 1819.808594 1378.070312 1707.089844 1252.890625 1568.039062 1252.890625 C 1428.988281 1252.890625 1316.269531 1378.070312 1316.269531 1532.5 C 1316.269531 1686.929688 1428.988281 1812.109375 1568.039062 1812.109375 C 1707.089844 1812.109375 1819.808594 1686.929688 1819.808594 1532.5 "/>
<path fill-rule="evenodd" fill="rgb(37.255859%, 37.255859%, 37.255859%)" fill-opacity="1" d="M 1818.710938 1532.5 C 1818.710938 1686.25 1706.480469 1810.890625 1568.039062 1810.890625 C 1429.601562 1810.890625 1317.371094 1686.25 1317.371094 1532.5 C 1317.371094 1378.75 1429.601562 1254.109375 1568.039062 1254.109375 C 1706.480469 1254.109375 1818.710938 1378.75 1818.710938 1532.5 Z M 1822.011719 1532.5 C 1822.011719 1376.730469 1708.300781 1250.449219 1568.039062 1250.449219 C 1427.78125 1250.449219 1314.070312 1376.730469 1314.070312 1532.5 C 1314.070312 1688.269531 1427.78125 1814.550781 1568.039062 1814.550781 C 1708.300781 1814.550781 1822.011719 1688.269531 1822.011719 1532.5 "/>
<path fill-rule="evenodd" fill="rgb(36.863708%, 36.863708%, 36.863708%)" fill-opacity="1" d="M 1820.910156 1532.5 C 1820.910156 1687.601562 1707.699219 1813.328125 1568.039062 1813.328125 C 1428.378906 1813.328125 1315.171875 1687.601562 1315.171875 1532.5 C 1315.171875 1377.398438 1428.378906 1251.671875 1568.039062 1251.671875 C 1707.699219 1251.671875 1820.910156 1377.398438 1820.910156 1532.5 Z M 1824.210938 1532.5 C 1824.210938 1375.378906 1709.519531 1248 1568.039062 1248 C 1426.558594 1248 1311.871094 1375.378906 1311.871094 1532.5 C 1311.871094 1689.621094 1426.558594 1817 1568.039062 1817 C 1709.519531 1817 1824.210938 1689.621094 1824.210938 1532.5 "/>
<path fill-rule="evenodd" fill="rgb(36.083984%, 36.083984%, 36.083984%)" fill-opacity="1" d="M 1823.109375 1532.5 C 1823.109375 1688.949219 1708.910156 1815.78125 1568.039062 1815.78125 C 1427.171875 1815.78125 1312.96875 1688.949219 1312.96875 1532.5 C 1312.96875 1376.050781 1427.171875 1249.230469 1568.039062 1249.230469 C 1708.910156 1249.230469 1823.109375 1376.050781 1823.109375 1532.5 Z M 1826.410156 1532.5 C 1826.410156 1374.03125 1710.730469 1245.558594 1568.039062 1245.558594 C 1425.351562 1245.558594 1309.671875 1374.03125 1309.671875 1532.5 C 1309.671875 1690.96875 1425.351562 1819.441406 1568.039062 1819.441406 C 1710.730469 1819.441406 1826.410156 1690.96875 1826.410156 1532.5 "/>
<path fill-rule="evenodd" fill="rgb(35.693359%, 35.693359%, 35.693359%)" fill-opacity="1" d="M 1825.308594 1532.5 C 1825.308594 1690.300781 1710.128906 1818.21875 1568.039062 1818.21875 C 1425.949219 1818.21875 1310.769531 1690.300781 1310.769531 1532.5 C 1310.769531 1374.699219 1425.949219 1246.78125 1568.039062 1246.78125 C 1710.128906 1246.78125 1825.308594 1374.699219 1825.308594 1532.5 Z M 1828.609375 1532.5 C 1828.609375 1372.679688 1711.949219 1243.121094 1568.039062 1243.121094 C 1424.128906 1243.121094 1307.46875 1372.679688 1307.46875 1532.5 C 1307.46875 1692.320312 1424.128906 1821.878906 1568.039062 1821.878906 C 1711.949219 1821.878906 1828.609375 1692.320312 1828.609375 1532.5 "/>
<path fill-rule="evenodd" fill="rgb(35.276794%, 35.276794%, 35.276794%)" fill-opacity="1" d="M 1827.511719 1532.5 C 1827.511719 1691.648438 1711.339844 1820.660156 1568.039062 1820.660156 C 1424.738281 1820.660156 1308.570312 1691.648438 1308.570312 1532.5 C 1308.570312 1373.359375 1424.738281 1244.339844 1568.039062 1244.339844 C 1711.339844 1244.339844 1827.511719 1373.359375 1827.511719 1532.5 Z M 1830.808594 1532.5 C 1830.808594 1371.328125 1713.160156 1240.679688 1568.039062 1240.679688 C 1422.921875 1240.679688 1305.269531 1371.328125 1305.269531 1532.5 C 1305.269531 1693.671875 1422.921875 1824.320312 1568.039062 1824.320312 C 1713.160156 1824.320312 1830.808594 1693.671875 1830.808594 1532.5 "/>
<path fill-rule="evenodd" fill="rgb(34.521484%, 34.521484%, 34.521484%)" fill-opacity="1" d="M 1829.710938 1532.5 C 1829.710938 1693 1712.558594 1823.101562 1568.039062 1823.101562 C 1423.53125 1823.101562 1306.371094 1693 1306.371094 1532.5 C 1306.371094 1372.011719 1423.53125 1241.898438 1568.039062 1241.898438 C 1712.558594 1241.898438 1829.710938 1372.011719 1829.710938 1532.5 Z M 1833.011719 1532.5 C 1833.011719 1369.980469 1714.378906 1238.238281 1568.039062 1238.238281 C 1421.699219 1238.238281 1303.070312 1369.980469 1303.070312 1532.5 C 1303.070312 1695.019531 1421.699219 1826.761719 1568.039062 1826.761719 C 1714.378906 1826.761719 1833.011719 1695.019531 1833.011719 1532.5 "/>
<path fill-rule="evenodd" fill="rgb(34.130859%, 34.130859%, 34.130859%)" fill-opacity="1" d="M 1831.910156 1532.5 C 1831.910156 1694.339844 1713.769531 1825.539062 1568.039062 1825.539062 C 1422.308594 1825.539062 1304.171875 1694.339844 1304.171875 1532.5 C 1304.171875 1370.660156 1422.308594 1239.460938 1568.039062 1239.460938 C 1713.769531 1239.460938 1831.910156 1370.660156 1831.910156 1532.5 Z M 1835.210938 1532.5 C 1835.210938 1368.628906 1715.589844 1235.789062 1568.039062 1235.789062 C 1420.488281 1235.789062 1300.871094 1368.628906 1300.871094 1532.5 C 1300.871094 1696.371094 1420.488281 1829.210938 1568.039062 1829.210938 C 1715.589844 1829.210938 1835.210938 1696.371094 1835.210938 1532.5 "/>
<path fill-rule="evenodd" fill="rgb(33.325195%, 33.325195%, 33.325195%)" fill-opacity="1" d="M 1834.109375 1532.5 C 1834.109375 1695.691406 1714.980469 1827.988281 1568.039062 1827.988281 C 1421.101562 1827.988281 1301.96875 1695.691406 1301.96875 1532.5 C 1301.96875 1369.308594 1421.101562 1237.019531 1568.039062 1237.019531 C 1714.980469 1237.019531 1834.109375 1369.308594 1834.109375 1532.5 Z M 1837.398438 1532.5 C 1837.398438 1367.289062 1716.808594 1233.351562 1568.039062 1233.351562 C 1419.269531 1233.351562 1298.679688 1367.289062 1298.679688 1532.5 C 1298.679688 1697.71875 1419.269531 1831.648438 1568.039062 1831.648438 C 1716.808594 1831.648438 1837.398438 1697.71875 1837.398438 1532.5 "/>
<path fill-rule="evenodd" fill="rgb(32.93457%, 32.93457%, 32.93457%)" fill-opacity="1" d="M 1836.300781 1532.5 C 1836.300781 1697.039062 1716.199219 1830.429688 1568.039062 1830.429688 C 1419.878906 1830.429688 1299.78125 1697.039062 1299.78125 1532.5 C 1299.78125 1367.960938 1419.878906 1234.570312 1568.039062 1234.570312 C 1716.199219 1234.570312 1836.300781 1367.960938 1836.300781 1532.5 Z M 1839.601562 1532.5 C 1839.601562 1365.941406 1718.019531 1230.910156 1568.039062 1230.910156 C 1418.058594 1230.910156 1296.480469 1365.941406 1296.480469 1532.5 C 1296.480469 1699.070312 1418.058594 1834.089844 1568.039062 1834.089844 C 1718.019531 1834.089844 1839.601562 1699.070312 1839.601562 1532.5 "/>
<path fill-rule="evenodd" fill="rgb(32.542419%, 32.542419%, 32.542419%)" fill-opacity="1" d="M 1838.5 1532.5 C 1838.5 1698.390625 1717.410156 1832.871094 1568.039062 1832.871094 C 1418.671875 1832.871094 1297.578125 1698.390625 1297.578125 1532.5 C 1297.578125 1366.609375 1418.671875 1232.128906 1568.039062 1232.128906 C 1717.410156 1232.128906 1838.5 1366.609375 1838.5 1532.5 Z M 1841.800781 1532.5 C 1841.800781 1364.589844 1719.230469 1228.46875 1568.039062 1228.46875 C 1416.851562 1228.46875 1294.28125 1364.589844 1294.28125 1532.5 C 1294.28125 1700.410156 1416.851562 1836.53125 1568.039062 1836.53125 C 1719.230469 1836.53125 1841.800781 1700.410156 1841.800781 1532.5 "/>
<path fill-rule="evenodd" fill="rgb(31.762695%, 31.762695%, 31.762695%)" fill-opacity="1" d="M 1840.699219 1532.5 C 1840.699219 1699.738281 1718.628906 1835.308594 1568.039062 1835.308594 C 1417.449219 1835.308594 1295.378906 1699.738281 1295.378906 1532.5 C 1295.378906 1365.261719 1417.449219 1229.691406 1568.039062 1229.691406 C 1718.628906 1229.691406 1840.699219 1365.261719 1840.699219 1532.5 Z M 1844 1532.5 C 1844 1363.238281 1720.449219 1226.03125 1568.039062 1226.03125 C 1415.628906 1226.03125 1292.078125 1363.238281 1292.078125 1532.5 C 1292.078125 1701.761719 1415.628906 1838.980469 1568.039062 1838.980469 C 1720.449219 1838.980469 1844 1701.761719 1844 1532.5 "/>
<path fill-rule="evenodd" fill="rgb(31.37207%, 31.37207%, 31.37207%)" fill-opacity="1" d="M 1842.898438 1532.5 C 1842.898438 1701.089844 1719.839844 1837.75 1568.039062 1837.75 C 1416.238281 1837.75 1293.179688 1701.089844 1293.179688 1532.5 C 1293.179688 1363.910156 1416.238281 1227.25 1568.039062 1227.25 C 1719.839844 1227.25 1842.898438 1363.910156 1842.898438 1532.5 Z M 1846.199219 1532.5 C 1846.199219 1361.890625 1721.660156 1223.578125 1568.039062 1223.578125 C 1414.421875 1223.578125 1289.878906 1361.890625 1289.878906 1532.5 C 1289.878906 1703.109375 1414.421875 1841.421875 1568.039062 1841.421875 C 1721.660156 1841.421875 1846.199219 1703.109375 1846.199219 1532.5 "/>
<path fill-rule="evenodd" fill="rgb(30.589294%, 30.589294%, 30.589294%)" fill-opacity="1" d="M 1845.101562 1532.5 C 1845.101562 1702.441406 1721.058594 1840.199219 1568.039062 1840.199219 C 1415.019531 1840.199219 1290.980469 1702.441406 1290.980469 1532.5 C 1290.980469 1362.558594 1415.019531 1224.808594 1568.039062 1224.808594 C 1721.058594 1224.808594 1845.101562 1362.558594 1845.101562 1532.5 Z M 1848.398438 1532.5 C 1848.398438 1360.539062 1722.878906 1221.140625 1568.039062 1221.140625 C 1413.199219 1221.140625 1287.679688 1360.539062 1287.679688 1532.5 C 1287.679688 1704.460938 1413.199219 1843.859375 1568.039062 1843.859375 C 1722.878906 1843.859375 1848.398438 1704.460938 1848.398438 1532.5 "/>
<path fill-rule="evenodd" fill="rgb(30.200195%, 30.200195%, 30.200195%)" fill-opacity="1" d="M 1847.300781 1532.5 C 1847.300781 1703.78125 1722.269531 1842.640625 1568.039062 1842.640625 C 1413.808594 1842.640625 1288.78125 1703.78125 1288.78125 1532.5 C 1288.78125 1361.21875 1413.808594 1222.359375 1568.039062 1222.359375 C 1722.269531 1222.359375 1847.300781 1361.21875 1847.300781 1532.5 Z M 1568.039062 1219.921875 C 1723.488281 1219.921875 1849.5 1359.871094 1849.5 1532.5 C 1849.5 1705.128906 1723.488281 1845.078125 1568.039062 1845.078125 C 1412.601562 1845.078125 1286.578125 1705.128906 1286.578125 1532.5 C 1286.578125 1359.871094 1412.601562 1219.921875 1568.039062 1219.921875 "/>
<path fill-rule="evenodd" fill="rgb(100%, 100%, 100%)" fill-opacity="1" d="M 1849.5 1532.5 C 1849.5 1705.128906 1723.488281 1845.078125 1568.039062 1845.078125 C 1412.601562 1845.078125 1286.578125 1705.128906 1286.578125 1532.5 C 1286.578125 1359.871094 1412.601562 1219.921875 1568.039062 1219.921875 C 1723.488281 1219.921875 1849.5 1359.871094 1849.5 1532.5 "/>
<path fill="none" stroke-width="2.51303" stroke-linecap="butt" stroke-linejoin="miter" stroke="rgb(100%, 100%, 100%)" stroke-opacity="1" stroke-miterlimit="2.61313" d="M 15680.390625 19000.78125 C 17234.882812 19000.78125 18495 17601.289062 18495 15875 C 18495 14148.710938 17234.882812 12749.21875 15680.390625 12749.21875 C 14126.015625 12749.21875 12865.78125 14148.710938 12865.78125 15875 C 12865.78125 17601.289062 14126.015625 19000.78125 15680.390625 19000.78125 Z M 15680.390625 19000.78125 " transform="matrix(0.1, 0, 0, -0.1, 0, 3120)"/>
<path fill="none" stroke-width="2.51303" stroke-linecap="butt" stroke-linejoin="miter" stroke="rgb(100%, 100%, 100%)" stroke-opacity="1" stroke-miterlimit="2.61313" d="M 11816.484375 19180.585938 L 19586.210938 19180.585938 C 20463.203125 19180.585938 21180.78125 18463.007812 21180.78125 17586.015625 L 21180.78125 14163.984375 C 21180.78125 13286.914062 20463.203125 12569.414062 19586.210938 12569.414062 L 11816.484375 12569.414062 C 10939.492188 12569.414062 10221.914062 13286.914062 10221.914062 14163.984375 L 10221.914062 17586.015625 C 10221.914062 18463.007812 10939.492188 19180.585938 11816.484375 19180.585938 Z M 11816.484375 19180.585938 " transform="matrix(0.1, 0, 0, -0.1, 0, 3120)"/>
<path fill="none" stroke-width="1200" stroke-linecap="butt" stroke-linejoin="miter" stroke="rgb(0%, 0%, 0%)" stroke-opacity="1" stroke-miterlimit="2.61313" d="M 17152.304688 25451.71875 L 25366.09375 17053.59375 C 26061.992188 16342.1875 26049.21875 15190.898438 25337.695312 14495 L 17052.890625 6391.992188 C 16341.40625 5696.132812 15190.195312 5708.90625 14494.296875 6420.351562 L 6280.507812 14818.515625 C 5584.648438 15529.882812 5597.421875 16681.210938 6308.867188 17377.109375 L 14593.710938 25480.117188 C 15305.195312 26175.898438 16456.484375 26163.203125 17152.304688 25451.71875 Z M 17152.304688 25451.71875 " transform="matrix(0.1, 0, 0, -0.1, 0, 3120)"/>
<path fill="none" stroke-width="1200" stroke-linecap="butt" stroke-linejoin="miter" stroke="rgb(0%, 0%, 0%)" stroke-opacity="1" stroke-miterlimit="2.61313" d="M 10451.289062 21428.59375 C 21195.3125 10443.515625 21195.3125 10443.515625 21195.3125 10443.515625 " transform="matrix(0.1, 0, 0, -0.1, 0, 3120)"/>
</svg>
